<svg xmlns="http://www.w3.org/2000/svg" viewBox="0 0 374.17 202.98"><defs><style>.cls-1,.cls-10,.cls-11,.cls-2,.cls-3,.cls-6,.cls-7,.cls-8,.cls-9{fill:none;stroke:#1d1d1b;}.cls-1{stroke-width:2.37px;}.cls-2{stroke-width:1.9px;}.cls-3{stroke-width:2.09px;}.cls-4{fill:#93153c;}.cls-5{fill:#1d1d1b;}.cls-6,.cls-7{stroke-miterlimit:10;}.cls-10,.cls-6{stroke-width:2.24px;}.cls-7{stroke-width:2.37px;}.cls-8{stroke-width:2.84px;}.cls-9{stroke-width:2.83px;}.cls-11{stroke-width:2.24px;}</style></defs><title>BAU-LOGO-TR</title><g id="katman_2" data-name="katman 2"><g id="katman_1-2" data-name="katman 1"><path class="cls-1" d="M76,90.4V73s1.81-4.6,6-5.21A9.91,9.91,0,0,1,87.61,73V90.4Z"/><path class="cls-2" d="M75.57,74H88M75.57,85.18H88"/><line class="cls-3" x1="81.79" y1="68.55" x2="81.79" y2="89.67"/><path class="cls-1" d="M56,90.4V73s1.82-4.6,6-5.21A9.87,9.87,0,0,1,67.6,73V90.4Z"/><path class="cls-2" d="M55.56,74H68M55.56,85.18H68"/><line class="cls-3" x1="61.79" y1="68.55" x2="61.79" y2="89.67"/><path class="cls-1" d="M36,90.4V73s1.81-4.6,6-5.21A9.91,9.91,0,0,1,47.6,73V90.4Z"/><path class="cls-2" d="M35.56,74H48M35.56,85.18H48"/><line class="cls-3" x1="41.78" y1="68.55" x2="41.78" y2="89.67"/><path class="cls-1" d="M16,90.4V73s1.82-4.6,6-5.21A9.88,9.88,0,0,1,27.59,73V90.4Z"/><path class="cls-2" d="M15.55,74H28M15.55,85.18H28"/><line class="cls-3" x1="21.78" y1="68.55" x2="21.78" y2="89.67"/><path class="cls-4" d="M24,149.39c0-4.23-1.59-7.46-4.77-9.66C18,138.94,16,138.52,13,138.52c-.21,0-.29.11-.29.34v11.5a14.53,14.53,0,0,0,.14,2.68,2.44,2.44,0,0,0,1.57,2,9.48,9.48,0,0,0,3.58.59,5.53,5.53,0,0,0,4.31-1.72A6.33,6.33,0,0,0,24,149.39m-3-18.93a8.52,8.52,0,0,0-1.52-5.09,5.36,5.36,0,0,0-4.61-2.44H13.45a.83.83,0,0,0-.71.93v12c0,.38.36.61,1.12.67h1.52a5.57,5.57,0,0,0,3.53-.91c1.35-1.11,2-2.82,2-5.15M30,147.21a9.34,9.34,0,0,1-4.08,8,15.14,15.14,0,0,1-9,2.57c-.77,0-2-.05-3.57-.15s-2.74-.14-3.53-.14-1.71,0-3.09.05-2.39.09-3.09.09-1-.16-1-.47.84-.5,2.54-.59c.75-.16,1.23-1.05,1.42-2.69q.25-1.93.25-10.32V135q0-8.73-.1-10.28A2.68,2.68,0,0,0,4.64,122a11.46,11.46,0,0,0-1.9-.13c-.56,0-.83-.15-.83-.45s.35-.43,1.06-.43c1,0,2.35,0,4,0l2.7.11c.65,0,1.64,0,3-.06s2.33-.1,3-.1a14.2,14.2,0,0,1,7,1.56,6.13,6.13,0,0,1,3.42,5.73c0,3-1.65,5.84-5,8.5a15.11,15.11,0,0,1,6.23,3.88,9.49,9.49,0,0,1,2.69,6.6"/><path class="cls-4" d="M16.89,158.22c-.84,0-2.09-.05-3.6-.14s-2.71-.14-3.5-.14-1.71,0-3.07.05-2.41.09-3.11.09c-1.22,0-1.4-.57-1.4-.9,0-.64.74-.9,3-1,.62-.14.9-1.33,1-2.31.16-1.26.24-4.62.24-10.27V135c0-5.89,0-9.24-.09-10.26a2.26,2.26,0,0,0-1.78-2.39,10.54,10.54,0,0,0-1.81-.12c-1.14,0-1.26-.61-1.26-.88s.26-.85,1.49-.85c1,0,2.35,0,4,0l2.71.11c.63,0,1.62,0,3-.06s2.28-.09,3-.09a14.62,14.62,0,0,1,7.21,1.61,6.55,6.55,0,0,1,3.65,6.1c0,3-1.53,5.76-4.56,8.35a15.2,15.2,0,0,1,5.68,3.73,10,10,0,0,1,2.82,6.9,9.78,9.78,0,0,1-4.26,8.37,15.69,15.69,0,0,1-9.27,2.64Zm-7.1-1.14c.81,0,2,0,3.55.15,1.89.11,3,.14,3.55.14a14.83,14.83,0,0,0,8.78-2.49,8.87,8.87,0,0,0,3.9-7.67A9,9,0,0,0,27,140.9a14.59,14.59,0,0,0-6.05-3.77l-.74-.25.61-.49c3.21-2.55,4.83-5.3,4.83-8.16a5.68,5.68,0,0,0-3.21-5.35,13.8,13.8,0,0,0-6.8-1.51c-.5,0-1.41,0-3,.1-1.36,0-2.35.06-3,.06l-2.71-.11c-1.62,0-2.95,0-4,0l-.33,0h.1a11.47,11.47,0,0,1,2,.14,3.1,3.1,0,0,1,2.46,3.18c.06,1,.09,4.4.09,10.31v8.56c0,5.68-.08,9.08-.24,10.38-.22,1.85-.8,2.85-1.76,3a12.79,12.79,0,0,0-1.88.21h.22c.69,0,1.69,0,3.07-.09s2.42,0,3.11,0Zm8.24-1a10.09,10.09,0,0,1-3.74-.62,2.85,2.85,0,0,1-1.83-2.31,14.31,14.31,0,0,1-.15-2.75V138.86a.69.69,0,0,1,.72-.77c3,0,5.15.43,6.4,1.28,3.29,2.28,4.95,5.65,4.95,10a6.81,6.81,0,0,1-1.73,4.81A6,6,0,0,1,18,156.05ZM13.16,139v11.42a16.76,16.76,0,0,0,.13,2.56,2,2,0,0,0,1.31,1.7,9.33,9.33,0,0,0,3.43.56,5.15,5.15,0,0,0,4-1.58,6,6,0,0,0,1.5-4.22A10.65,10.65,0,0,0,19,140.08c-1.07-.73-3.07-1.12-5.79-1.13Zm2.22-2H13.86c-1.35-.1-1.55-.73-1.55-1.1v-12a1.27,1.27,0,0,1,1-1.35h1.43a5.75,5.75,0,0,1,4.95,2.62,9,9,0,0,1,1.6,5.34c0,2.46-.72,4.3-2.16,5.48a5.91,5.91,0,0,1-3.8,1ZM13.5,123.36c-.23,0-.34.16-.34.5v12c0,.09.26.21.73.25h1.49a5.18,5.18,0,0,0,3.27-.83c1.24-1,1.84-2.59,1.84-4.81a8.08,8.08,0,0,0-1.44-4.84,4.92,4.92,0,0,0-4.26-2.26Z"/><path class="cls-4" d="M68,151.15a21,21,0,0,1-.63,5.38,1.4,1.4,0,0,1-1,1.17,8,8,0,0,1-1.66.1c-1.5,0-3.78-.05-6.81-.15s-5.27-.14-6.76-.14c-.69,0-1.73,0-3.09,0s-2.41.1-3.09.1-1-.16-1-.48.85-.49,2.55-.58c.75-.16,1.22-1.05,1.42-2.69q.24-1.93.24-10.32V135c0-5.82,0-9.26-.1-10.29A2.68,2.68,0,0,0,46,122a10.39,10.39,0,0,0-1.9-.13q-.84,0-.84-.45c0-.27.36-.43,1.08-.43,1,0,2.32,0,4,0l3,.11L63.67,121a24,24,0,0,0,2.89-.48c.19,0,.28.14.28.43a11.5,11.5,0,0,1-.14,1.56,11.33,11.33,0,0,0-.19,1.6c-.11,1.22-.2,2.29-.29,3.21,0,.35-.2.53-.5.53s-.44-.52-.53-1.56c-.17-1.48-1.33-2.36-3.48-2.62-1.05-.14-3.38-.2-7-.2-.22,0-.34.17-.34.5v12.27c0,.37.12.55.34.55,4.35,0,7,0,7.84-.1a6.76,6.76,0,0,0,1.28-.15,2.06,2.06,0,0,0,1.08-.58c.39-.43.65-.64.78-.64s.35.13.35.39a12.68,12.68,0,0,1-.16,1.76c-.11.9-.2,1.49-.24,1.79-.13,1.88-.19,3-.19,3.25,0,.62-.15.92-.44.92s-.45-.3-.54-.92c0-.42-.07-.84-.1-1.27-.23-1.09-1.14-1.72-2.75-1.89-.95-.09-3.25-.14-7-.14-.19,0-.29.16-.29.48v11.36c0,1.69.4,2.79,1.17,3.31s2.25.78,4.72.78a12.32,12.32,0,0,0,4.6-.59c1.14-.52,1.88-1.71,2.21-3.59.08-.48.28-.74.54-.74s.38.3.38.89"/><path class="cls-4" d="M64.74,158.23c-1.5,0-3.8,0-6.83-.15-2.8-.09-5.13-.14-6.74-.14-.69,0-1.72,0-3.08,0s-2.36.1-3.1.1c-1.16,0-1.4-.5-1.4-.91,0-.63.74-.89,2.95-1,.61-.13.9-1.33,1-2.31.16-1.26.24-4.62.24-10.27V135c0-5.89,0-9.25-.09-10.26a2.26,2.26,0,0,0-1.78-2.39,10.54,10.54,0,0,0-1.81-.12c-1.14,0-1.26-.61-1.26-.88s.26-.85,1.5-.85c1,0,2.32,0,4,0l3,.11,12.26-.06a26.09,26.09,0,0,0,2.8-.47h.09c.32,0,.71.22.71.86a12.62,12.62,0,0,1-.14,1.62,10.37,10.37,0,0,0-.19,1.54l-.1,1.15c-.07.78-.13,1.48-.2,2.11a.9.9,0,0,1-.92.91c-.69,0-.87-1-1-1.95-.15-1.26-1.17-2-3.11-2.23-1-.13-3.22-.2-6.83-.2v12.34a.41.41,0,0,0,0,.12c4.26,0,6.85,0,7.71-.1a7.67,7.67,0,0,0,1.19-.13,1.69,1.69,0,0,0,.9-.47c.56-.63.84-.77,1.08-.77a.74.74,0,0,1,.77.82,14.91,14.91,0,0,1-.15,1.81c-.07.5-.12.9-.17,1.21s-.06.45-.08.58c-.13,2-.18,3-.18,3.2,0,1.17-.55,1.35-.87,1.35-.51,0-.83-.43-1-1.28,0-.33,0-.62-.08-.92l0-.39c-.19-.84-1-1.35-2.37-1.49-.68-.07-2.4-.14-6.78-.14v11.41c0,1.52.33,2.52,1,3,.44.32,1.55.7,4.48.7a11.47,11.47,0,0,0,4.42-.55c1-.46,1.66-1.54,2-3.28.17-1,.73-1.09,1-1.09s.8.23.8,1.32a21.33,21.33,0,0,1-.64,5.49,1.8,1.8,0,0,1-1.29,1.47,6.27,6.27,0,0,1-1.77.12Zm-13.57-1.15c1.62,0,4,0,6.77.14,3,.1,5.31.15,6.8.15a6.7,6.7,0,0,0,1.52-.08c.25-.06.55-.21.71-.86a20.68,20.68,0,0,0,.62-5.28,2.73,2.73,0,0,0,0-.31,1.84,1.84,0,0,0-.06.23c-.35,2-1.18,3.33-2.46,3.91a12.57,12.57,0,0,1-4.77.63c-2.58,0-4.2-.28-5-.86S54,152.94,54,151.09V139.73c0-.87.59-.91.71-.91,3.57,0,6,.05,7,.14,1.8.19,2.85.94,3.13,2.23l0,.45c0,.29.05.58.07.88a1.42,1.42,0,0,0,.11.41,2.62,2.62,0,0,0,0-.38c0-.33.07-1.56.19-3.28,0-.16,0-.36.08-.62s.1-.71.16-1.2a14.82,14.82,0,0,0,.15-1.55,4.92,4.92,0,0,0-.38.39A2.58,2.58,0,0,1,64,137a6.17,6.17,0,0,1-1.34.15c-.88.07-3.53.11-7.87.11-.13,0-.76,0-.76-1V124c0-.68.39-.92.76-.92a69.84,69.84,0,0,1,7,.2c2.35.28,3.65,1.29,3.84,3a5,5,0,0,0,.18,1.06v0c.07-.63.13-1.32.2-2.09l.1-1.12a11.73,11.73,0,0,1,.19-1.63,11.72,11.72,0,0,0,.14-1.46,25.19,25.19,0,0,1-2.71.45l-12.31.06-3-.11c-1.69,0-3,0-4,0l-.31,0h.07a11.47,11.47,0,0,1,2,.14,3.1,3.1,0,0,1,2.46,3.17c.06,1,.09,4.41.09,10.32v8.56c0,5.69-.08,9.09-.24,10.38-.22,1.85-.8,2.85-1.75,3a13,13,0,0,0-1.88.21H45c.73,0,1.79,0,3.06-.09s2.43,0,3.12,0Zm14.55-29.62h0Z"/><path class="cls-4" d="M110.39,150.56a23.25,23.25,0,0,1-1,5.93,1.44,1.44,0,0,1-1.47,1.26q-4.41,0-13.19-.15c-5.81-.06-10.2-.08-13.14-.08-.56,0-.83-.18-.83-.5a3.93,3.93,0,0,1,.74-1.46l20.74-31.9H92.64c-3.47,0-5.82.35-7.06,1a4.27,4.27,0,0,0-1.87,1.84c-.16.37-.45,1.16-.88,2.38-.1.3-.26.45-.49.45s-.39-.28-.39-.83.32-2.91,1-7c.1-.61.3-.92.59-.92a4.64,4.64,0,0,1,.88.2,6.85,6.85,0,0,0,1.08.14c2.12.11,5.12.16,9,.16h15c.53,0,.83.12.83.38a2,2,0,0,1-.4.91q-5.19,8.37-21.12,32.45h12q6.23,0,7.7-2.68a8.28,8.28,0,0,0,.88-2.32c.1-.52.27-.78.49-.78s.5.5.5,1.5"/><path class="cls-4" d="M107.93,158.18c-2.7,0-6.65,0-13.19-.15s-10.83-.09-13.14-.09c-1.13,0-1.26-.64-1.26-.92a3.77,3.77,0,0,1,.81-1.69l20.31-31.24H92.64c-3.38,0-5.68.33-6.86,1a3.82,3.82,0,0,0-1.69,1.66c-.13.3-.39,1-.86,2.32a.93.93,0,0,1-.89.74c-.3,0-.82-.17-.82-1.26,0-.81.54-4.29,1-7.07.17-1.06.64-1.28,1-1.28a4.17,4.17,0,0,1,1,.22,6.75,6.75,0,0,0,1,.13c2.18.1,5.21.15,9,.15h15c1.09,0,1.25.51,1.25.81a2.33,2.33,0,0,1-.47,1.15c-3.24,5.23-9.63,15.05-20.68,31.78h11.26c4,0,6.44-.83,7.33-2.46a7.47,7.47,0,0,0,.83-2.2c.14-.74.45-1.12.91-1.12.92,0,.92,1.45.92,1.93a23.7,23.7,0,0,1-1,6.05,1.86,1.86,0,0,1-1.88,1.57ZM81.2,157a1,1,0,0,0,.4.06c2.31,0,6.46,0,13.15.09,6.45.1,10.52.14,13.18.14.39,0,.83-.11,1.06-.94a22.84,22.84,0,0,0,1-5.82,3.8,3.8,0,0,0-.08-.9c0,.06,0,.15-.07.26a8.5,8.5,0,0,1-.91,2.44c-1.07,2-3.72,2.91-8.08,2.91H88l.44-.67c11.32-17.13,17.83-27.13,21.11-32.43a2.55,2.55,0,0,0,.32-.6,1.31,1.31,0,0,0-.38,0h-15c-3.83,0-6.87,0-9-.16a5.45,5.45,0,0,1-1.14-.15,4.74,4.74,0,0,0-.8-.19,1.65,1.65,0,0,0-.17.56c-.88,5.43-1,6.66-1,6.93a1.22,1.22,0,0,0,0,.32l0-.08c.48-1.36.74-2.06.89-2.41a4.74,4.74,0,0,1,2.06-2c1.32-.72,3.69-1.07,7.26-1.07H103L81.86,155.8c-.6.92-.66,1.17-.66,1.23Zm1.14-28.11Z"/><path class="cls-4" d="M170.77,157.12c0,.35-.43.53-1.27.53-4.06,0-7.37-.09-9.95-.3-1,0-1.42-.23-1.42-.52,0-.06.16-.24.49-.53s.45-1,.29-2.1L156,132.83h-.19l-10.69,22.06c-.89,1.82-1.5,2.71-1.82,2.71s-.87-.81-1.72-2.42c-3-5.63-4.84-9.32-5.63-11-.65-1.42-2.34-5-5.11-10.78h-.19l-2.55,19.33a18.86,18.86,0,0,0-.14,2.28c0,1.2,1.17,1.8,3.53,1.8.49,0,.73.11.73.34s-.39.53-1.17.53-1.79,0-3-.05l-2.17-.08c-.52,0-1.32,0-2.39,0s-1.9.09-2.45.09-.89-.18-.89-.53c0-.19.33-.33,1-.39.43,0,.86-.06,1.28-.09,1-.21,1.66-1.49,2-3.84l4.85-31.67c.13-.83.41-1.26.83-1.26s.84.51,1.33,1.5l13.38,27.4,13.34-27.72c.36-.79.71-1.18,1.07-1.18s.72.51.88,1.5l4.47,30a14,14,0,0,0,.59,2.87,2.83,2.83,0,0,0,1.8,2.05,10.81,10.81,0,0,0,3.05.48c.52,0,.78.11.78.34"/><path class="cls-4" d="M169.5,158.08c-4.18,0-7.44-.1-10-.3-.53,0-1.8-.1-1.8-.95,0-.23.13-.41.62-.85.12-.1.35-.44.16-1.71L155.7,134l-10.23,21.09c-1.33,2.73-1.81,2.95-2.2,2.95s-.8-.2-2.09-2.65c-2.87-5.43-4.82-9.25-5.65-11-.61-1.34-2.14-4.59-4.63-9.81l-2.4,18.22a16.9,16.9,0,0,0-.14,2.23c0,.91,1,1.37,3.1,1.37,1,0,1.16.48,1.16.77,0,.44-.28,1-1.6,1-.79,0-1.79,0-3-.05l-2.18-.09c-.49,0-1.29,0-2.36.05s-1.89.09-2.46.09c-1.22,0-1.32-.73-1.32-1,0-.7,1-.79,1.37-.82l.78-.05.51,0c.72-.16,1.3-1.36,1.62-3.48l4.85-31.66c.17-1.09.6-1.63,1.25-1.63s1.12.54,1.71,1.74l13,26.61,13-26.93c.27-.61.72-1.42,1.45-1.42,1,0,1.23,1.4,1.3,1.86l4.47,30a13.44,13.44,0,0,0,.56,2.76,2.47,2.47,0,0,0,1.54,1.81,10.47,10.47,0,0,0,2.92.46c1,0,1.21.42,1.21.77s-.3,1-1.7,1Zm-10.8-1.28a3.68,3.68,0,0,0,.87.13c2.53.2,5.78.29,9.93.29h.38a11.16,11.16,0,0,1-3.06-.5,3.25,3.25,0,0,1-2.09-2.33,14.92,14.92,0,0,1-.61-2.94l-4.46-30c-.15-.94-.38-1.14-.46-1.14s-.27,0-.68.92l-13.73,28.53L131,121.56c-.62-1.25-.94-1.26-.95-1.26-.16,0-.32.35-.41.9l-4.85,31.66c-.38,2.57-1.15,3.95-2.34,4.2l-.56,0-.79.06a2.39,2.39,0,0,0-.36.05H121c.56,0,1.37,0,2.42-.09s1.9,0,2.42,0l2.19.09c1.19,0,2.18,0,3,0h.35c-2.57,0-3.87-.77-3.87-2.23a18.35,18.35,0,0,1,.15-2.33l2.6-19.71h.83l.12.24c2.77,5.8,4.46,9.38,5.1,10.79.83,1.78,2.77,5.59,5.63,11a10,10,0,0,0,1.34,2.15,9.47,9.47,0,0,0,1.43-2.43l10.82-22.29h.82l3,21.73c.19,1.3,0,2.09-.45,2.49l-.18.17Z"/><path class="cls-4" d="M196.8,157.18c0,.31-.31.47-.92.47-1.25,0-2.75,0-4.51-.05l-3.14-.09c-.69,0-1.72,0-3.09.05s-2.4.09-3.09.09-1-.16-1-.47.85-.5,2.55-.59c.72-.16,1.21-1.25,1.52-3.25a43.24,43.24,0,0,0,.24-5.84q-.09-9-.09-3.92V135q0-8.73-.11-10.29c-.09-1.56-.65-2.46-1.66-2.72l-1.47-.15c-.72-.09-1.08-.27-1.08-.53s.39-.39,1.17-.39,1.79,0,3.19.11,2.46,0,3.19,0,1.65,0,3,0,2.33-.11,3-.11,1,.14,1,.39-.32.44-.94.53l-1.3.09c-1.13.21-1.73,1.13-1.82,2.78-.08,1.1-.1,4.53-.1,10.29v8.56q0,8.58.19,10.67a2.24,2.24,0,0,0,2,2.34c.62,0,1.23.06,1.82.09,1,.1,1.46.27,1.46.5m-5.28-41.82a3.07,3.07,0,0,1-.84,2.23,3.25,3.25,0,0,1-4.37,0,3,3,0,0,1-.78-2.13,2.92,2.92,0,0,1,3-3,3,3,0,0,1,2.11.78,2.57,2.57,0,0,1,.89,2"/><path class="cls-4" d="M195.88,158.08c-1.25,0-2.75,0-4.52-.05l-3.15-.09c-.67,0-1.7,0-3.06.05s-2.4.09-3.1.09c-1.23,0-1.41-.57-1.41-.9,0-.64.78-.9,3-1,.16,0,.74-.43,1.12-2.89a42,42,0,0,0,.24-5.77c0-1.67,0-3-.05-3.92h0V135c0-5.78,0-9.23-.11-10.26-.08-1.36-.51-2.12-1.33-2.33-.44-.05-.92-.11-1.4-.14s-1.48-.19-1.48-1,1.21-.81,1.6-.81c.8,0,1.91,0,3.21.1s2.44,0,3.17,0,1.65,0,3,0,2.27-.1,3-.1c1,0,1.45.27,1.45.81s-.44.83-1.3,1l-.43,0-.91.06c-.53.1-1.31.47-1.42,2.38-.07,1-.1,4.1-.1,10.26v8.56c0,5.69.07,9.27.19,10.63.11,1.18.63,1.82,1.6,2l1.17.05.61,0c1,.1,1.86.27,1.86.93,0,.33-.17.9-1.34.9Zm-7.65-1,3.15.1c1.76,0,3.25,0,4.5,0h.17a5.4,5.4,0,0,0-.75-.11l-.6,0c-.39,0-.79-.05-1.19-.06a2.66,2.66,0,0,1-2.38-2.73c-.12-1.41-.19-4.91-.19-10.71V135c0-6.18,0-9.27.1-10.31.11-1.86.84-2.93,2.17-3.18l.95-.06.4,0,.26,0a30.7,30.7,0,0,0-3.28.08c-1.36,0-2.37,0-3,0s-1.79,0-3.2,0-2.4-.1-3.18-.1l-.36,0,.32,0q.72,0,1.47.15c.89.22,1.91.93,2,3.12.08,1,.11,4.51.11,10.31v6.75s0,.16,0,.61c0,.85.07,2.38.1,5.11a42.25,42.25,0,0,1-.25,5.9c-.34,2.27-.93,3.41-1.85,3.62a13,13,0,0,0-1.88.21h.22c.69,0,1.72,0,3.07-.09s2.41,0,3.11,0Zm.23-38.19A3.39,3.39,0,0,1,186,118a3.43,3.43,0,0,1-.91-2.44,3.22,3.22,0,0,1,1-2.4,3.27,3.27,0,0,1,2.46-1,3.46,3.46,0,0,1,2.4.89,3,3,0,0,1,1,2.36,3.53,3.53,0,0,1-.95,2.53,3.38,3.38,0,0,1-2.53,1Zm.06-5.92a2.49,2.49,0,0,0-2.57,2.54,2.56,2.56,0,0,0,.67,1.84,2.85,2.85,0,0,0,3.76-.06,2.64,2.64,0,0,0,.71-1.93,2.16,2.16,0,0,0-.74-1.72,2.6,2.6,0,0,0-1.83-.67Z"/><path class="cls-4" d="M226.37,142.27l-4.42-12c-.06-.3-.14-.44-.25-.44s-.22.14-.29.44l-4.5,11.94c-.11.23,0,.35.19.35h9c.23,0,.31-.1.25-.29m17,14.91c0,.31-.76.47-2.27.47q-6.17,0-9.25-.09c-1,0-1.47-.17-1.47-.38s.23-.42.68-.45.67-.54.44-1.11l-3.92-10.3a.52.52,0,0,0-.5-.34H216.11c-.19,0-.33.13-.43.39L213,152.32a9.19,9.19,0,0,0-.74,3c0,1,.66,1.5,2,1.5H215c.49,0,.73.13.73.4s-.27.47-.82.47-1.37,0-2.61-.09a21.8,21.8,0,0,0-2.59-.05l-2.1.09c-1.44,0-2.67.05-3.69.05-.61,0-.93-.16-.93-.47s.29-.4.89-.45a12.19,12.19,0,0,0,1.22,0,4,4,0,0,0,2.7-1.55,11.63,11.63,0,0,0,1.47-2.81l12.3-30.5q.8-1.95,1.38-1.95c.39,0,.79.52,1.21,1.56l6.72,16.65c1.89,4.64,3.72,9,5.45,13.21,1.34,3.21,2.77,5,4.31,5.3a9.7,9.7,0,0,0,2.06.19c.42,0,.64.13.64.4M231,115.45a.69.69,0,0,1-.24.49l-1.43,1.41a1,1,0,0,1-.63.33c-.13,0-.38-.17-.73-.52a43.35,43.35,0,0,0-4.32-3.6,1.23,1.23,0,0,0-.64-.28,1.43,1.43,0,0,0-.74.24,32.92,32.92,0,0,0-5.19,3.59,2.06,2.06,0,0,1-1,.57c-.28,0-.43-.16-.43-.47a1.4,1.4,0,0,1,.43-.73c1.15-1.26,3.31-3.28,6.47-6a2.09,2.09,0,0,1,1-.57,2.14,2.14,0,0,1,.88.52c1.28,1,3.24,2.49,5.85,4.38.46.32.68.55.68.67"/><path class="cls-4" d="M241.06,158.08c-4.05,0-7.16,0-9.26-.09-.92,0-1.89-.13-1.89-.81,0-.29.14-.79,1-.87a.38.38,0,0,0,.19-.13.64.64,0,0,0-.06-.4l-3.92-10.3c0-.07,0-.07-.1-.07H216.13a1.1,1.1,0,0,0-.06.12l-2.64,6.94a8.78,8.78,0,0,0-.71,2.81c0,.32,0,1.07,1.54,1.07H215c1,0,1.16.58,1.16.83s-.13.9-1.25.9c-.49,0-1.33,0-2.63-.1a23.1,23.1,0,0,0-2.54,0l-2.12.09c-1.45,0-2.68.05-3.7.05-1.18,0-1.35-.57-1.35-.9s.22-.78,1.27-.88a10,10,0,0,0,1.22-.05,3.47,3.47,0,0,0,2.4-1.39,10.73,10.73,0,0,0,1.41-2.7l12.31-30.5c.63-1.56,1.16-2.22,1.77-2.22s1.1.56,1.61,1.83l6.72,16.65c1.6,3.93,3.16,7.7,4.65,11.3l.79,1.9c1.28,3.06,2.63,4.76,4,5a8.93,8.93,0,0,0,2,.18c1,0,1.06.63,1.06.83,0,.75-1.07.9-2.69.9Zm-9.78-1,.54,0c2.09.06,5.2.09,9.24.09.4,0,.73,0,1,0a8,8,0,0,1-1.51-.18c-1.68-.36-3.19-2.18-4.61-5.55l-.79-1.91c-1.49-3.6-3-7.37-4.65-11.3l-6.72-16.66c-.51-1.26-.82-1.29-.82-1.29s-.34.11-1,1.68l-12.31,30.5a11.09,11.09,0,0,1-1.54,2.92,4.37,4.37,0,0,1-3,1.71,11.31,11.31,0,0,1-1.27,0l-.28,0,.32,0c1,0,2.24,0,3.68,0l2.09-.1a23,23,0,0,1,2.64,0,24.52,24.52,0,0,0,2.8.08h-.86c-2.08,0-2.39-1.21-2.39-1.93a9.29,9.29,0,0,1,.77-3.12l2.64-6.95a.9.9,0,0,1,.83-.66H227a.93.93,0,0,1,.89.6l3.93,10.32a1.33,1.33,0,0,1,0,1.07,1.11,1.11,0,0,1-.61.55Zm11.62.09h0ZM226.12,143h-9a.63.63,0,0,1-.58-.28.67.67,0,0,1,0-.68l4.48-11.9c.11-.46.34-.72.69-.72.51,0,.63.59.66.79l4.41,11.94a.63.63,0,0,1-.06.59.69.69,0,0,1-.59.26Zm-.16-.57Zm-8.56-.28h8.46l-4.18-11.37-4.28,11.37Zm11.32-24c-.26,0-.56-.18-1-.64a40.14,40.14,0,0,0-4.28-3.56,1,1,0,0,0-.38-.21,1.07,1.07,0,0,0-.52.18,32.68,32.68,0,0,0-5.13,3.56,2.3,2.3,0,0,1-1.27.67.82.82,0,0,1-.86-.9,1.68,1.68,0,0,1,.54-1c1.19-1.29,3.38-3.33,6.51-6.06a2.32,2.32,0,0,1,1.31-.68c.22,0,.49.1,1.14.61,1.2,1,3,2.32,5.84,4.37.62.44.86.71.86,1a1.16,1.16,0,0,1-.37.79l-1.43,1.41a1.35,1.35,0,0,1-.93.46ZM223,112.85a1.56,1.56,0,0,1,.88.36,44.52,44.52,0,0,1,4.38,3.64,2.37,2.37,0,0,0,.49.41,2.91,2.91,0,0,0,.28-.22l1.42-1.4a.77.77,0,0,0,.09-.13,3.39,3.39,0,0,0-.48-.38c-2.86-2.06-4.67-3.42-5.87-4.4a2.88,2.88,0,0,0-.65-.43,2.92,2.92,0,0,0-.72.49,87,87,0,0,0-6.42,6,1.8,1.8,0,0,0-.33.46s.19,0,.73-.45a33.31,33.31,0,0,1,5.25-3.64,1.86,1.86,0,0,1,.95-.29Z"/><path class="cls-4" d="M276.22,150.91a20.22,20.22,0,0,1-.74,5.58,1.53,1.53,0,0,1-1.17,1.21,11.42,11.42,0,0,1-1.92.1q-2.4,0-7.16-.15c-3.16-.1-5.53-.14-7.1-.14-.68,0-1.71,0-3.08,0s-2.41.1-3.09.1-1-.16-1-.48.86-.49,2.57-.58c.74-.16,1.21-1.05,1.41-2.69q.26-1.93.25-10.32V135c0-5.72,0-9.19-.1-10.34A2.83,2.83,0,0,0,254,122.3a5.34,5.34,0,0,0-2.66-.48c-.54,0-.82-.15-.82-.44s.35-.44,1.08-.44,2.08,0,3.72,0l3,.11c.75,0,1.86,0,3.33,0s2.59-.11,3.33-.11,1,.16,1,.44-.4.42-1.21.49l-1.58.08c-1.1.21-1.7,1.13-1.8,2.79q-.1,1.64-.11,10.28v8.56c0,3.55.05,6,.16,7.23.12,1.74.42,2.82.88,3.2.82.72,2.79,1.07,5.93,1.07a12.85,12.85,0,0,0,4.65-.63,4.22,4.22,0,0,0,2.36-3.64c.06-.49.24-.73.54-.73s.39.28.39.83"/><path class="cls-4" d="M272.39,158.23c-1.67,0-4.15,0-7.17-.15s-5.42-.14-7.09-.14c-.68,0-1.71,0-3.07,0s-2.4.1-3.1.1c-1.24,0-1.42-.57-1.42-.91,0-.64.75-.89,3-1,.61-.13.89-1.33,1-2.31.16-1.27.24-4.73.24-10.27V135c0-5.56,0-9.12-.1-10.31a2.43,2.43,0,0,0-.88-2,4.66,4.66,0,0,0-2.42-.41c-1.13,0-1.25-.61-1.25-.88,0-.56.51-.85,1.51-.85.84,0,2.08,0,3.73,0l3,.11c.74,0,1.84,0,3.31,0s2.56-.1,3.34-.1c1.2,0,1.45.46,1.45.85,0,.79-1.13.88-1.61.92s-1.06.07-1.6.09c-.26.06-1.26.25-1.39,2.38-.07,1.12-.1,4.66-.1,10.26v8.56c0,3.73.05,6,.15,7.2.16,2.2.57,2.77.73,2.91.51.44,1.9,1,5.66,1a12.43,12.43,0,0,0,4.49-.6,3.78,3.78,0,0,0,2.09-3.29c.13-1,.66-1.11,1-1.11s.82.16.82,1.26a20.88,20.88,0,0,1-.76,5.7,2,2,0,0,1-1.49,1.51,11.43,11.43,0,0,1-2,.11Zm-14.26-1.15c1.67,0,4.13,0,7.12.14s5.48.15,7.14.15a10.26,10.26,0,0,0,1.82-.09,1.1,1.1,0,0,0,.86-.91,19.91,19.91,0,0,0,.72-5.46,2.16,2.16,0,0,0,0-.31,1.62,1.62,0,0,0-.06.27,4.62,4.62,0,0,1-2.6,4,13.14,13.14,0,0,1-4.83.68c-3.27,0-5.3-.38-6.21-1.17-.56-.47-.89-1.62-1-3.49-.1-1.22-.15-3.46-.15-7.27V135c0-5.61,0-9.18.1-10.31.11-1.86.84-2.93,2.15-3.18.59,0,1.11-.06,1.63-.09l.46-.06H265c-.77,0-1.88,0-3.31.1s-2.6,0-3.35,0l-3-.1c-1.63,0-2.86,0-3.7,0l-.34,0h.08a5.56,5.56,0,0,1,2.89.55,3.23,3.23,0,0,1,1.26,2.72c.07,1.21.11,4.79.11,10.36v8.56c0,5.58-.09,9.07-.26,10.38-.22,1.85-.79,2.85-1.74,3a13.19,13.19,0,0,0-1.89.21H252c.69,0,1.72,0,3.07-.09s2.42,0,3.1,0Zm17.7-6.57Z"/><path class="cls-4" d="M311.37,151.15a21,21,0,0,1-.64,5.38,1.4,1.4,0,0,1-1,1.17,7.88,7.88,0,0,1-1.66.1c-1.5,0-3.78-.05-6.81-.15s-5.26-.14-6.76-.14c-.69,0-1.73,0-3.1,0s-2.4.1-3.08.1-1-.16-1-.48.86-.49,2.55-.58c.76-.16,1.24-1.05,1.43-2.69q.26-1.93.25-10.32V135c0-5.82,0-9.26-.1-10.29a2.7,2.7,0,0,0-2.1-2.78,10.83,10.83,0,0,0-1.93-.13c-.55,0-.83-.15-.83-.45s.37-.43,1.09-.43c1,0,2.32,0,4,0l3,.11L307,121a24,24,0,0,0,2.89-.48c.2,0,.28.14.28.43a11.5,11.5,0,0,1-.14,1.56,13.12,13.12,0,0,0-.19,1.6c-.11,1.22-.2,2.29-.29,3.21,0,.35-.21.53-.5.53s-.44-.52-.53-1.56c-.16-1.48-1.33-2.36-3.49-2.62-1-.14-3.36-.2-7-.2-.24,0-.34.17-.34.5v12.27c0,.37.1.55.34.55,4.34,0,7,0,7.84-.1a6.87,6.87,0,0,0,1.27-.15,2.06,2.06,0,0,0,1.08-.58c.39-.43.66-.64.78-.64s.34.13.34.39a15.85,15.85,0,0,1-.14,1.76c-.13.9-.21,1.49-.24,1.79-.14,1.88-.2,3-.2,3.25,0,.62-.15.92-.45.92s-.43-.3-.54-.92c0-.42-.06-.84-.1-1.27-.22-1.09-1.14-1.72-2.73-1.89q-1.42-.13-7-.14c-.19,0-.27.16-.27.48v11.36c0,1.69.38,2.79,1.17,3.31s2.24.78,4.71.78a12.36,12.36,0,0,0,4.6-.59c1.14-.52,1.87-1.71,2.2-3.59.1-.48.29-.74.55-.74s.39.3.39.89"/><path class="cls-4" d="M308.08,158.23c-1.5,0-3.8,0-6.82-.15-2.81-.09-5.15-.14-6.75-.14-.69,0-1.72,0-3.09,0s-2.35.1-3.09.1c-1.23,0-1.41-.57-1.41-.91,0-.63.74-.89,2.95-1,.63-.14.91-1.33,1-2.31.16-1.27.24-4.73.24-10.27V135c0-5.54,0-9.19-.1-10.26a2.25,2.25,0,0,0-1.77-2.39,10.88,10.88,0,0,0-1.83-.12c-1.13,0-1.26-.61-1.26-.88s.27-.85,1.52-.85c1,0,2.32,0,4,0l3,.11,12.25-.06a26.1,26.1,0,0,0,2.81-.47h.08c.12,0,.71,0,.71.86a12.18,12.18,0,0,1-.15,1.62,11.54,11.54,0,0,0-.18,1.54c-.11,1.26-.21,2.33-.3,3.25a.91.91,0,0,1-.92.92c-.7,0-.87-1-1-1.95-.13-1.26-1.15-2-3.11-2.23-1-.13-3.21-.2-6.81-.2a.15.15,0,0,0,0,.07v12.27c0,.05,0,.09,0,.12,4.25,0,6.84,0,7.71-.1a7.21,7.21,0,0,0,1.19-.13,1.71,1.71,0,0,0,.89-.46c.61-.68.89-.78,1.09-.78a.74.74,0,0,1,.77.82,16.05,16.05,0,0,1-.15,1.81c-.13.91-.2,1.49-.24,1.79-.16,2.29-.2,3-.2,3.2,0,1.17-.54,1.35-.87,1.35-.74,0-.9-1-1-1.27l0-.5q0-.4-.06-.81c-.18-.85-.95-1.36-2.36-1.5-.95-.09-3.35-.14-6.78-.14v11.41c0,1.53.33,2.52,1,3,.43.32,1.55.7,4.47.7a11.55,11.55,0,0,0,4.42-.55c1-.46,1.65-1.53,2-3.28.19-.95.69-1.09,1-1.09s.82.17.82,1.32a21.08,21.08,0,0,1-.66,5.49,1.8,1.8,0,0,1-1.29,1.47,6.27,6.27,0,0,1-1.77.12Zm-13.57-1.15c1.61,0,3.95,0,6.78.14,3,.1,5.3.15,6.79.15a6.1,6.1,0,0,0,1.52-.08c.27-.07.55-.22.72-.87a20.77,20.77,0,0,0,.62-5.27,2.5,2.5,0,0,0,0-.33,1.51,1.51,0,0,0-.07.26c-.36,2-1.16,3.32-2.45,3.9a12.61,12.61,0,0,1-4.77.63c-2.61,0-4.19-.28-5-.86s-1.35-1.8-1.35-3.66V139.73c0-.85.54-.91.7-.91,3.59,0,6,.05,7,.14,1.8.19,2.84.94,3.11,2.23,0,.33.05.6.07.88l0,.45a2,2,0,0,0,.1.4,1.64,1.64,0,0,0,0-.37c0-.3.07-1.41.2-3.28,0-.32.12-.91.25-1.83.08-.67.13-1.17.14-1.53a3.16,3.16,0,0,0-.39.38,2.4,2.4,0,0,1-1.3.71,6.26,6.26,0,0,1-1.34.15c-.89.07-3.54.11-7.86.11-.18,0-.77-.07-.77-1V124c0-.68.4-.92.77-.92a69.34,69.34,0,0,1,7,.2c2.37.28,3.67,1.29,3.85,3a5,5,0,0,0,.18,1.07v0c.08-.92.18-2,.29-3.21a12.64,12.64,0,0,1,.19-1.63c.08-.61.13-1.12.14-1.45a27.34,27.34,0,0,1-2.71.44l-12.3.06-3.05-.11c-1.68,0-3,0-4,0l-.32,0h.06a11.72,11.72,0,0,1,2,.14,3.08,3.08,0,0,1,2.45,3.17c.07,1.1.1,4.76.1,10.32v8.56c0,5.58-.08,9.07-.25,10.38-.22,1.85-.79,2.85-1.76,3a13.18,13.18,0,0,0-1.87.21h.22c.73,0,1.78,0,3.05-.09s2.44,0,3.13,0Zm14.55-29.62Z"/><path class="cls-4" d="M372.59,157.12c0,.35-.42.53-1.27.53-4.05,0-7.37-.09-10-.3-.94,0-1.4-.23-1.4-.52,0-.06.15-.24.48-.53s.45-1,.29-2.1l-2.94-21.37h-.2l-10.68,22.06c-.88,1.82-1.49,2.71-1.82,2.71s-.86-.81-1.72-2.42c-3-5.63-4.84-9.32-5.63-11-.66-1.42-2.35-5-5.1-10.78h-.19L329.9,152.7a17,17,0,0,0-.16,2.28c0,1.2,1.19,1.8,3.54,1.8.49,0,.73.11.73.34s-.39.53-1.17.53-1.79,0-3-.05l-2.16-.08c-.53,0-1.32,0-2.4,0s-1.89.09-2.45.09-.89-.18-.89-.53c0-.19.34-.33,1-.39.43,0,.85-.06,1.27-.09,1-.21,1.66-1.49,2-3.84l4.84-31.67c.14-.83.41-1.26.84-1.26s.83.51,1.33,1.5l13.38,27.4L360,121.05c.35-.79.7-1.18,1.07-1.18s.71.51.89,1.5l4.45,30a14,14,0,0,0,.59,2.87,2.84,2.84,0,0,0,1.81,2.05,10.74,10.74,0,0,0,3,.48c.52,0,.78.11.78.34"/><path class="cls-4" d="M371.32,158.08c-4.18,0-7.45-.1-10-.3-.53,0-1.8-.1-1.8-.95,0-.23.15-.43.63-.85.11-.1.33-.44.15-1.71L357.52,134l-10.23,21.11c-1.32,2.73-1.81,2.95-2.2,2.95s-.9-.42-2.09-2.65c-2.94-5.57-4.84-9.29-5.65-11-.67-1.47-2.35-5-4.62-9.79l-2.41,18.21a17.76,17.76,0,0,0-.15,2.23c0,.91,1,1.37,3.11,1.37,1,0,1.16.48,1.16.77,0,.44-.28,1-1.6,1-.79,0-1.79,0-3-.05l-2.16-.09c-.51,0-1.31,0-2.37.05s-1.9.09-2.47.09c-1.22,0-1.31-.73-1.31-1,0-.7,1-.79,1.37-.82l.78-.05.49,0c.72-.16,1.31-1.36,1.63-3.48l4.85-31.66c.18-1.09.6-1.63,1.26-1.63s1.1.54,1.71,1.74l13,26.61,13-26.93c.43-1,.91-1.42,1.46-1.42,1,0,1.23,1.4,1.3,1.86l4.47,30a13.23,13.23,0,0,0,.55,2.76,2.46,2.46,0,0,0,1.55,1.81,10.1,10.1,0,0,0,2.91.46c1,0,1.21.42,1.21.77s-.3,1-1.7,1Zm-10.8-1.28a3.68,3.68,0,0,0,.87.13c2.53.2,5.77.29,9.93.29h.39a11.22,11.22,0,0,1-3.06-.5,3.23,3.23,0,0,1-2.09-2.33,13.18,13.18,0,0,1-.61-2.94l-4.46-30c-.16-.93-.39-1.14-.46-1.14s-.36.19-.68.92l-13.73,28.53-13.77-28.19c-.63-1.25-.94-1.26-.94-1.26-.17,0-.33.35-.42.9l-4.84,31.66c-.4,2.58-1.17,3.95-2.37,4.2l-.53,0-.79.06a2.56,2.56,0,0,0-.37.05h.25c.55,0,1.34,0,2.43-.09s1.89,0,2.42,0l2.18.09c1.19,0,2.19,0,3,0h.35c-2.57,0-3.87-.77-3.87-2.23a19.49,19.49,0,0,1,.15-2.34l2.61-19.7h.83l.12.24c2.51,5.28,4.37,9.22,5.1,10.79.8,1.75,2.69,5.45,5.62,11a9.73,9.73,0,0,0,1.35,2.15,9.82,9.82,0,0,0,1.43-2.43l10.8-22.29h.83l3,21.73c.19,1.29.05,2.09-.44,2.49l-.19.17Zm-38.14.32Z"/><path class="cls-4" d="M6.34,170.3l4.18,11q.92-2.11,2.61-6.5c1.13-2.85,1.8-4.69,2-5.48a3.47,3.47,0,0,0,.21-.82,1.26,1.26,0,0,0-1.12-.59l1.55-.25h1.48l1.05-.05a4.66,4.66,0,0,1-.93.56,5,5,0,0,0-1.21,2l-2.44,5.86q-2.24,5.34-2.82,6.53l-.6,1.3c-.42.35-.53.25-.63.07a9.42,9.42,0,0,1-.45-1.07L3.91,169.71a4.7,4.7,0,0,0-.66-1.21,2.08,2.08,0,0,0-.91-.44,2.28,2.28,0,0,0-.82-.1l2-.25H5.25l1.24-.05c.39,0,.59.06.59.15l-.66.17c-.57.18-.68.33-.68.52a10.89,10.89,0,0,0,.6,1.8m21.42,11.31,4.93-13.4c.22-.56.38-.85.49-.85s.28.26.48.78c1.25,3.25,2.94,7.6,5.08,13,.58,1.44,1.25,2.26,2,2.44a3.05,3.05,0,0,0,.72.08,15.47,15.47,0,0,1-3.64.27c-.44,0-.65-.06-.65-.15.36-.22.41-.4.28-.74l-2-5.3-4.88-.14-1.52,4a4.45,4.45,0,0,0-.31,1.44c0,.43.29.62.83.62l-.84.27-.75,0-.93,0-1.53,0a3.56,3.56,0,0,0,2.25-2.37m3-4.77H35l-2-6-2.25,5.84.08.15Zm21.61.89v-3.8c0-2.64,0-4.2,0-4.66a1.2,1.2,0,0,0-.94-1.24,3.24,3.24,0,0,0-.75-.07l1.69-.25h1.76l1.23-.05a1.76,1.76,0,0,0-1.17,1.61c0,.46,0,2,0,4.66v1.29L59.35,170q1.17-1.25,1.17-1.56c-.42-.49-.49-.55-.49-.63l1-.1h1.73l1.22-.05a2.94,2.94,0,0,1-1.13.63,9.51,9.51,0,0,0-2.34,1.84c-2.66,2.52-4.26,4.1-4.79,4.72.31.37,1.28,1.35,2.88,3s2.71,2.74,3.11,3.11c1,.9,1.62,1.46,1.92,1.7a5.58,5.58,0,0,0,1.33.75,3.43,3.43,0,0,0,1.34.28l-1.3.31c-.7,0-1.2,0-1.51,0a3.42,3.42,0,0,1-1.38-.41,11.77,11.77,0,0,1-1.25-.91c-.46-.38-1.56-1.47-3.31-3.33s-2.75-3-3.34-3.68l-.1,2.12c0,2.48,0,4,.1,4.67s.37,1.13.86,1.19l.82.08-1.74.27-.91,0-.87,0-1.23,0a1.77,1.77,0,0,0,1.11-1.58c.08-.56.12-2.12.12-4.67m25.82-3.8v3.8c0,2.48,0,4,.1,4.67s.37,1.13.85,1.19a7.12,7.12,0,0,0,1,.08l-1.93.27-.92,0-.88,0-1.26,0a1.8,1.8,0,0,0,1.12-1.58c.07-.56.1-2.12.1-4.67v-3.8c0-2.64,0-4.2,0-4.66,0-.69-.29-1.1-.74-1.21a2.17,2.17,0,0,0-.69-.1l1.51-.25h1.73l1.28-.05a1.74,1.74,0,0,0-1.17,1.61c0,.46,0,2,0,4.66m15.35,3.8v-3.8c0-2.64,0-4.2,0-4.66a1.19,1.19,0,0,0-.94-1.24,3.21,3.21,0,0,0-.74-.07l1.74-.25h6.26a6.69,6.69,0,0,0,1-.09l.25,1.09c0,.38,0,.85-.1,1.42a2.23,2.23,0,0,1-.53-.85c-.2-.44-.68-.66-1.48-.7l-3.36-.05-.19,6.2,3,.17,1.06,0a1.26,1.26,0,0,0,.92-.4l.16,1.17c0,.61-.07,1.09-.07,1.44-.34,0-.37-.21-.44-.55a1.25,1.25,0,0,0-1.14-.79c-.35,0-1.45-.06-3.29-.06l-.15,2c0,2.48,0,4,.11,4.67s.38,1.13.86,1.19a7,7,0,0,0,1,.08l-1.94.27-.91,0-.87,0-1.27,0a1.8,1.8,0,0,0,1.12-1.58c.07-.56.1-2.12.1-4.67m33.92-.65v-3.15c0-2.64,0-4.2-.05-4.66a1.17,1.17,0,0,0-.93-1.24,3.13,3.13,0,0,0-.75-.07l1.73-.25h1.85l1.27-.05a1.69,1.69,0,0,0-1.17,1.61c0,.49-.06,2-.06,4.66v3c0,2.52.56,4.31,1.65,5.32a4.58,4.58,0,0,0,3.27,1.19,4.2,4.2,0,0,0,3.41-1.52c.86-1.05,1.28-2.83,1.28-5.32v-2.69c0-2.64,0-4.2,0-4.66A1.2,1.2,0,0,0,138,168a3,3,0,0,0-.73-.07l1.63-.25h1.58l1.1-.05c-.86.47-1.14.88-1.17,1.61,0,.49-.05,2-.05,4.66v2.3c0,3.12-.67,5.28-2,6.46a6.58,6.58,0,0,1-4.48,1.6,6.37,6.37,0,0,1-4.51-1.54c-1.26-1.19-1.89-3.09-1.89-5.67m9.72-11.3a1.08,1.08,0,0,1-.91-.38,1.39,1.39,0,0,1-.3-.87,1.3,1.3,0,0,1,.3-.83,1.09,1.09,0,0,1,.94-.41,1.18,1.18,0,0,1,.88.32,1,1,0,0,1,.37.84,1.42,1.42,0,0,1-.34,1,1.25,1.25,0,0,1-.94.36m-5.88,0a1.09,1.09,0,0,1-.92-.38,1.39,1.39,0,0,1-.3-.87,1.3,1.3,0,0,1,.3-.83,1.1,1.1,0,0,1,.94-.41,1.23,1.23,0,0,1,.89.32,1,1,0,0,1,.37.84,1.43,1.43,0,0,1-.35,1,1.2,1.2,0,0,1-.93.36m23.42,4.92.28,10.34a10.41,10.41,0,0,0,.11,1.44c.12.61.37,1,.74,1.07a4.43,4.43,0,0,0,1.09.12l-1.77.27-.75,0-.76,0-1.34,0c.14-.31.44-.35.75-.43s.51-.5.59-1.22c0-.2,0-.72,0-1.52l0-12.37q0-1.08.24-1.08c.07,0,.32.24.76.7l6.93,7.4,5.22,5.63-.23-11a4.55,4.55,0,0,0-.21-1.5.76.76,0,0,0-.61-.53,4,4,0,0,0-1.1-.14l1.68-.25H168l1.18-.05c-.71.44-.94.62-1,.89A4.85,4.85,0,0,0,168,170l0,12.65c0,1-.06,1.52-.2,1.52a7.77,7.77,0,0,1-1.58-1.38q-2.35-2.31-5.69-5.85c-2-2.12-3.88-4.18-5.69-6.2m29.76,3.23v3.8c0,2.48,0,4,.11,4.67s.37,1.13.85,1.19a7.11,7.11,0,0,0,1,.08l-1.93.27-.91,0-.88,0-1.25,0a1.78,1.78,0,0,0,1.1-1.58c.07-.56.11-2.12.11-4.67v-3.8c0-2.64,0-4.2,0-4.66,0-.69-.3-1.1-.74-1.21a2.12,2.12,0,0,0-.68-.1l1.5-.25h1.72l1.29-.05a1.73,1.73,0,0,0-1.17,1.61c0,.46-.05,2-.05,4.66m-.95-7a1.23,1.23,0,0,1-1-.41,1.38,1.38,0,0,1,0-1.64,1.19,1.19,0,0,1,1-.43,1.21,1.21,0,0,1,.88.32,1.08,1.08,0,0,1,.38.87,1.32,1.32,0,0,1-.36.92,1.15,1.15,0,0,1-.9.37m16.85,3.39,4.19,11c.62-1.41,1.48-3.58,2.61-6.5s1.81-4.69,2.06-5.48a3.58,3.58,0,0,0,.19-.82,1.26,1.26,0,0,0-1.12-.59l1.55-.25h1.49l1-.05a5,5,0,0,1-.95.56,5.11,5.11,0,0,0-1.19,2l-2.44,5.86c-1.5,3.56-2.44,5.74-2.8,6.53l-.62,1.3c-.43.35-.54.25-.64.07a7.76,7.76,0,0,1-.45-1.07L198,169.71a4.12,4.12,0,0,0-.68-1.21,2,2,0,0,0-.88-.44,2.51,2.51,0,0,0-.84-.1l2-.25h1.76l1.24-.05c.4,0,.6.06.6.15l-.65.17c-.59.18-.67.33-.67.52a9.37,9.37,0,0,0,.57,1.8m23.23,7.43v-3.8c0-2.64,0-4.2,0-4.66a1.18,1.18,0,0,0-.93-1.24,3.15,3.15,0,0,0-.74-.07l1.74-.25h5.89a6.25,6.25,0,0,0,.94-.11l.22,1.11c0,.38-.06.85-.12,1.42a2.36,2.36,0,0,1-.46-.83c-.17-.38-.69-.63-1.55-.72-.38-.05-1.39-.08-3-.08l-.13,6.19a23.24,23.24,0,0,0,3.6.16,1.87,1.87,0,0,0,1-.32l.23,1.12c-.06.61-.08,1.06-.08,1.36-.53-.9-.91-1.15-1.54-1.23s-1.71-.11-3.11-.11l-.15,5.76a1.9,1.9,0,0,0,.48,1.43,4.37,4.37,0,0,0,2.06.32,5.93,5.93,0,0,0,2.09-.24,1.86,1.86,0,0,0,1-1.55,2.92,2.92,0,0,1,0,2.1,1.26,1.26,0,0,1-1.18.56c-1.32,0-2.56,0-3.71-.07l-1.67-.07-.88,0-1.26,0a1.77,1.77,0,0,0,1.11-1.58c.08-.56.11-2.12.11-4.67m20.9,0v-3.8c0-2.64,0-4.2-.05-4.66a1.19,1.19,0,0,0-.93-1.24,3.36,3.36,0,0,0-.75-.07l1.75-.25h2l1.46-.05a6.81,6.81,0,0,1,4,1,3.4,3.4,0,0,1,1.5,2.93,6.86,6.86,0,0,1-2.63,5l2.46,3.11c.83,1,1.52,1.84,2.07,2.41a4.62,4.62,0,0,0,2.65,1.55,4.93,4.93,0,0,0,.85.06l-1.86.31a5,5,0,0,1-2.34-.41,4.66,4.66,0,0,1-1.34-1.17c-.26-.27-.78-.93-1.6-2l-2.37-3.19-3-.18-.15.7c0,2.48,0,4,.11,4.67s.37,1.13.85,1.19a7.12,7.12,0,0,0,1,.08l-1.94.27-.91,0-2.06.07a1.78,1.78,0,0,0,1.12-1.58c.07-.56.11-2.12.11-4.67m1.74-9v7.05a3.44,3.44,0,0,0,2.43.61,2.82,2.82,0,0,0,1.64-.42c.89-.6,1.33-1.7,1.33-3.32a4.58,4.58,0,0,0-1-3.17,3.47,3.47,0,0,0-2.75-1.14,5.54,5.54,0,0,0-1.45.12l-.18.27Zm23.81,15.54a6.56,6.56,0,0,1-2.91-.59c-.23-.1-.33-.38-.33-.82a15.68,15.68,0,0,1,.12-2.46,1.58,1.58,0,0,1,.38.87c.31,1.46,1.38,2.2,3.22,2.2a3.07,3.07,0,0,0,2.36-.94,2.69,2.69,0,0,0,.75-1.94,3.26,3.26,0,0,0-.53-1.89,9.2,9.2,0,0,0-2-2l-1-.81a9.33,9.33,0,0,1-2.28-2.49,4.36,4.36,0,0,1-.55-2.18,3.55,3.55,0,0,1,1.22-2.81,4.76,4.76,0,0,1,3.29-1.08,8.63,8.63,0,0,1,2,.22,3.84,3.84,0,0,0,.77.1l.18.8c0,.49-.05,1-.05,1.65,0,.33-.05.49-.15.49a8,8,0,0,0-.46-1.35c-.42-.77-1.32-1.16-2.72-1.16a2.8,2.8,0,0,0-1.93.69,2.34,2.34,0,0,0-.76,1.82,2.81,2.81,0,0,0,.56,1.69,11.11,11.11,0,0,0,2.11,1.94l.61.48a9.8,9.8,0,0,1,2.54,2.63,4.64,4.64,0,0,1,.64,2.43,4.16,4.16,0,0,1-1.86,3.58,5.6,5.6,0,0,1-3.29.92m20.34-10.36v3.8c0,2.48,0,4,.1,4.67s.37,1.13.86,1.19a7,7,0,0,0,1,.08l-1.93.27-.92,0-.88,0-1.25,0a1.78,1.78,0,0,0,1.1-1.58c.08-.56.11-2.12.11-4.67v-3.8c0-2.64,0-4.2,0-4.66-.05-.69-.29-1.1-.74-1.21a2.19,2.19,0,0,0-.68-.1l1.5-.25h1.72l1.29-.05a1.74,1.74,0,0,0-1.18,1.61c0,.46,0,2,0,4.66m-1-7a1.21,1.21,0,0,1-1-.41,1.34,1.34,0,0,1,0-1.64,1.17,1.17,0,0,1,1-.43,1.22,1.22,0,0,1,.89.32,1.1,1.1,0,0,1,.37.87,1.3,1.3,0,0,1-.34.92,1.19,1.19,0,0,1-.92.37m21,1.67v9.15c0,2.48,0,4,.12,4.67s.36,1.13.84,1.19a7.23,7.23,0,0,0,1,.08l-1.94.27-.91,0-.88,0-1.26,0a1.76,1.76,0,0,0,1.1-1.58,46.34,46.34,0,0,0,.12-4.67v-9.15l-3.22,0a11.28,11.28,0,0,0-1.23.09,1.55,1.55,0,0,0-1,.6l-.27.52c-.43-.21-.26-1,.05-2.07l.55-.28a1.76,1.76,0,0,0,.62.13c.82.07,1.39.1,1.72.1H314a10.07,10.07,0,0,0,1.53-.1l.63-.1.06,1.6,0,1c-.41-1.08-1.31-1.48-3-1.51l-2.74,0Zm18,9.15v-3.8c0-2.64,0-4.2,0-4.66a1.18,1.18,0,0,0-.94-1.24,3,3,0,0,0-.73-.07l1.75-.25h5.87a6.09,6.09,0,0,0,.94-.11l.22,1.11c0,.38,0,.85-.1,1.42a2.12,2.12,0,0,1-.47-.83c-.17-.38-.69-.63-1.54-.72-.4-.05-1.39-.08-3-.08l-.13,6.19a23.21,23.21,0,0,0,3.6.16,1.77,1.77,0,0,0,1-.32l.24,1.12c-.05.61-.09,1.06-.09,1.36-.52-.9-.89-1.15-1.52-1.23s-1.72-.11-3.11-.11l-.16,5.76a1.86,1.86,0,0,0,.48,1.43,4.3,4.3,0,0,0,2,.32,5.92,5.92,0,0,0,2.1-.24,1.85,1.85,0,0,0,1-1.55,2.92,2.92,0,0,1,0,2.1,1.22,1.22,0,0,1-1.17.56c-1.33,0-2.56,0-3.71-.07l-1.68-.07-.86,0-1.26,0a1.82,1.82,0,0,0,1.11-1.58c.05-.56.1-2.12.1-4.67m22.43,6.56a6.59,6.59,0,0,1-2.93-.59c-.22-.1-.33-.38-.33-.82a14.13,14.13,0,0,1,.13-2.46,1.55,1.55,0,0,1,.37.87c.3,1.46,1.39,2.2,3.24,2.2a3,3,0,0,0,2.34-.94,2.69,2.69,0,0,0,.76-1.94,3.19,3.19,0,0,0-.54-1.89,9,9,0,0,0-2-2l-1-.81a9.1,9.1,0,0,1-2.27-2.49,4.26,4.26,0,0,1-.55-2.18,3.54,3.54,0,0,1,1.21-2.81,4.81,4.81,0,0,1,3.29-1.08,8.9,8.9,0,0,1,2,.22,3.76,3.76,0,0,0,.76.1l.18.8c0,.49,0,1,0,1.65,0,.33-.06.49-.16.49a7.19,7.19,0,0,0-.46-1.35c-.41-.77-1.33-1.16-2.72-1.16a2.76,2.76,0,0,0-1.92.69,2.33,2.33,0,0,0-.75,1.82,2.86,2.86,0,0,0,.54,1.69,11.44,11.44,0,0,0,2.11,1.94l.61.48a10.19,10.19,0,0,1,2.55,2.63,4.63,4.63,0,0,1,.63,2.43,4.11,4.11,0,0,1-1.85,3.58,5.59,5.59,0,0,1-3.28.92m20.31-10.36v3.8c0,2.48,0,4,.12,4.67s.36,1.13.85,1.19a7,7,0,0,0,1,.08l-1.94.27-.9,0-.88,0-1.25,0a1.81,1.81,0,0,0,1.1-1.58c.06-.56.11-2.12.11-4.67v-3.8c0-2.64,0-4.2-.05-4.66,0-.69-.29-1.1-.74-1.21a2.15,2.15,0,0,0-.68-.1l1.51-.25h1.73l1.27-.05a1.74,1.74,0,0,0-1.17,1.61c0,.46-.05,2-.05,4.66m-1-7a1.19,1.19,0,0,1-.95-.41,1.34,1.34,0,0,1,0-1.64,1.15,1.15,0,0,1,.95-.43,1.3,1.3,0,0,1,.91.32,1.13,1.13,0,0,1,.37.87,1.35,1.35,0,0,1-.35.92,1.21,1.21,0,0,1-.93.37"/><path class="cls-4" d="M350.89,184.51a6.7,6.7,0,0,1-3-.62c-.3-.13-.45-.47-.45-1a12.87,12.87,0,0,1,.14-2.51l.1-.43.27.34a1.71,1.71,0,0,1,.4.93c.29,1.4,1.28,2.06,3,2.06a2.83,2.83,0,0,0,2.19-.86,2.54,2.54,0,0,0,.7-1.8,3,3,0,0,0-.51-1.76,8.76,8.76,0,0,0-1.92-1.95l-1-.81a9.58,9.58,0,0,1-2.33-2.55,4.58,4.58,0,0,1-.57-2.29,3.76,3.76,0,0,1,1.28-3,5,5,0,0,1,3.43-1.14,9.14,9.14,0,0,1,2.08.23,3.5,3.5,0,0,0,.71.1h.17l.23,1v0c0,.46,0,1,0,1.64,0,.17,0,.71-.37.71h-.15l-.15-.49a5.36,5.36,0,0,0-.34-1c-.38-.69-1.23-1-2.54-1a2.54,2.54,0,0,0-1.77.63,2.12,2.12,0,0,0-.69,1.66,2.62,2.62,0,0,0,.5,1.56,11,11,0,0,0,2.07,1.9l.61.48a10.31,10.31,0,0,1,2.6,2.69,4.86,4.86,0,0,1,.66,2.54,4.34,4.34,0,0,1-1.94,3.76,5.85,5.85,0,0,1-3.4,1Zm-3-3.36c0,.42,0,1,0,1.73,0,.34.07.57.2.62a6.31,6.31,0,0,0,2.84.58,5.4,5.4,0,0,0,3.15-.88,3.9,3.9,0,0,0,1.77-3.41,4.46,4.46,0,0,0-.6-2.32,10.13,10.13,0,0,0-2.5-2.57l-.61-.48a11.52,11.52,0,0,1-2.15-2,3,3,0,0,1-.58-1.81,2.53,2.53,0,0,1,.82-2,3,3,0,0,1,2.06-.74c1.48,0,2.46.43,2.91,1.26a3.55,3.55,0,0,1,.22.53c0-.45,0-.85,0-1.2l-.14-.6a4.24,4.24,0,0,1-.64-.1,8.76,8.76,0,0,0-2-.22,4.65,4.65,0,0,0-3.15,1,3.33,3.33,0,0,0-1.13,2.65,4.09,4.09,0,0,0,.51,2.08,9.06,9.06,0,0,0,2.23,2.42l1,.81a9.62,9.62,0,0,1,2,2.05,3.42,3.42,0,0,1,.58,2,2.91,2.91,0,0,1-.82,2.09,3.28,3.28,0,0,1-2.5,1c-2,0-3.12-.8-3.45-2.37v-.06s0-.08,0-.12Zm-77.78,3.36a6.76,6.76,0,0,1-3-.62c-.29-.12-.44-.46-.44-1a16.59,16.59,0,0,1,.12-2.5l.09-.45.28.35a1.76,1.76,0,0,1,.42.92c.3,1.41,1.28,2.07,3,2.07a2.83,2.83,0,0,0,2.2-.86,2.47,2.47,0,0,0,.7-1.8,3,3,0,0,0-.5-1.76,8.77,8.77,0,0,0-1.92-1.95l-1-.81a9.71,9.71,0,0,1-2.34-2.55,4.59,4.59,0,0,1-.58-2.29,3.77,3.77,0,0,1,1.3-3,5,5,0,0,1,3.43-1.14,8.86,8.86,0,0,1,2.07.23,3.71,3.71,0,0,0,.72.1h.17l.22,1v0c0,.49-.05,1-.05,1.64,0,.19,0,.71-.36.71h-.16l-.08-.29a6.81,6.81,0,0,0-.41-1.18c-.38-.69-1.23-1-2.53-1a2.59,2.59,0,0,0-1.79.64,2.1,2.1,0,0,0-.69,1.65,2.61,2.61,0,0,0,.52,1.56,11,11,0,0,0,2.07,1.9l.61.48a9.77,9.77,0,0,1,2.59,2.7,4.83,4.83,0,0,1,.67,2.53,4.38,4.38,0,0,1-1.94,3.76,5.9,5.9,0,0,1-3.42,1Zm-3-3.37c0,.39-.05.94-.05,1.74,0,.2,0,.55.2.62a6.29,6.29,0,0,0,2.83.58,5.44,5.44,0,0,0,3.17-.88,4,4,0,0,0,1.77-3.41,4.31,4.31,0,0,0-.62-2.31A9.37,9.37,0,0,0,272,174.9l-.61-.48a11.17,11.17,0,0,1-2.15-2,3,3,0,0,1-.6-1.81,2.57,2.57,0,0,1,.83-2,3,3,0,0,1,2.07-.74c1.47,0,2.45.42,2.9,1.26a2.74,2.74,0,0,1,.22.53c0-.42,0-.82,0-1.19l-.13-.61a4.39,4.39,0,0,1-.64-.1,8.17,8.17,0,0,0-2-.22,4.55,4.55,0,0,0-3.15,1,3.33,3.33,0,0,0-1.15,2.65,4.17,4.17,0,0,0,.52,2.08,9.17,9.17,0,0,0,2.24,2.42l1,.81a9,9,0,0,1,2,2.05,3.42,3.42,0,0,1,.57,2,2.89,2.89,0,0,1-.82,2.09,3.31,3.31,0,0,1-2.51,1c-1.95,0-3.1-.8-3.43-2.37v-.05a.68.68,0,0,0,0-.14Zm-133.22,3.37a6.56,6.56,0,0,1-4.65-1.6c-1.3-1.23-2-3.19-2-5.83v-3.16c0-2.52,0-4.17,0-4.63s-.27-.94-.76-1a3.1,3.1,0,0,0-.71-.06l0-.43,1.73-.26,1,0,3.14-.1-.89.44c-.85.43-1,.8-1.05,1.43s0,2.23,0,4.64v3c0,2.45.53,4.19,1.57,5.16a4.37,4.37,0,0,0,3.13,1.14,3.94,3.94,0,0,0,3.24-1.45c.82-1,1.24-2.74,1.24-5.18v-2.7c0-2.73,0-4.2,0-4.64a1,1,0,0,0-.78-1,3,3,0,0,0-.69-.06l0-.43,1.62-.26.89,0,2.74-.1-.81.44c-.87.47-1,.84-1.06,1.43s0,2.11,0,4.64v2.31c0,3.17-.7,5.39-2.08,6.62a6.8,6.8,0,0,1-4.62,1.66ZM127,168a1.45,1.45,0,0,1,.66,1.26c0,.48,0,2.07,0,4.67v3.16c0,2.52.61,4.37,1.82,5.51a6.13,6.13,0,0,0,4.36,1.49,6.38,6.38,0,0,0,4.34-1.55c1.28-1.14,1.93-3.26,1.93-6.3v-2.31c0-2.54,0-4.16,0-4.67a1.68,1.68,0,0,1,.62-1.34l-1.07,0-.86,0-.4.07a1.45,1.45,0,0,1,.67,1.26c0,.46,0,1.9,0,4.67v2.7c0,2.54-.45,4.38-1.34,5.45a4.37,4.37,0,0,1-3.57,1.61,4.8,4.8,0,0,1-3.42-1.25c-1.13-1.06-1.71-2.9-1.71-5.48v-3c0-2.42,0-4.12.05-4.67a1.78,1.78,0,0,1,.61-1.35l-1.38,0-1,0L127,168ZM9.91,184.39H9.84a.43.43,0,0,1-.31-.27,7.12,7.12,0,0,1-.47-1.1L3.71,169.79a4.13,4.13,0,0,0-.62-1.14,1.84,1.84,0,0,0-.81-.39,2.64,2.64,0,0,0-.77-.08l0-.43,2-.26,1,0,2-.06c.22,0,.8,0,.8.36V168l-.82.21c-.51.16-.51.26-.51.31a10.39,10.39,0,0,0,.57,1.73l4,10.55c.57-1.35,1.35-3.28,2.4-6s1.79-4.61,2-5.46a4,4,0,0,0,.19-.69,1,1,0,0,0-.9-.44l0-.43,1.55-.26.86,0,2.28-.09-.44.4a2.62,2.62,0,0,1-.69.44l-.27.14a5,5,0,0,0-1.12,1.93L14,176.19c-1.52,3.63-2.45,5.77-2.82,6.55l-.67,1.36a.91.91,0,0,1-.56.29ZM2.85,168a1.93,1.93,0,0,1,.55.35,4.87,4.87,0,0,1,.71,1.28l5.35,13.23a8.51,8.51,0,0,0,.43,1l0,.08s.07,0,.23-.17l.58-1.25c.38-.77,1.3-2.9,2.81-6.52L16,170.17A4.94,4.94,0,0,1,17.29,168l.24-.13-.89,0-.83,0-.65.11a2.71,2.71,0,0,1,.38.38l.05.06v.08a2.88,2.88,0,0,1-.22.89c-.25.86-1,2.81-2,5.49-1.19,3.08-2,5.15-2.62,6.51l-.21.47L6.14,170.38a8,8,0,0,1-.61-1.88c0-.3.18-.47.5-.61l-1.57.05-1,0-.63.08ZM204,184.39h-.08a.43.43,0,0,1-.31-.27,7.53,7.53,0,0,1-.47-1.1l-5.34-13.22a3.53,3.53,0,0,0-.63-1.14,2,2,0,0,0-.79-.39,2.53,2.53,0,0,0-.78-.08l0-.43,2-.26,1,0,2-.06c.27,0,.82,0,.82.36V168l-.81.21c-.51.15-.51.25-.51.31a8.82,8.82,0,0,0,.56,1.73l4,10.55c.58-1.35,1.37-3.33,2.4-6s1.79-4.61,2.05-5.46a6.81,6.81,0,0,0,.18-.69,1,1,0,0,0-.9-.44l0-.43,1.55-.26.87,0,2.29-.09-.45.4a2.7,2.7,0,0,1-.71.44l-.27.14a4.61,4.61,0,0,0-1.11,1.93l-2.44,5.86c-1.52,3.62-2.44,5.76-2.8,6.54l-.67,1.37a1,1,0,0,1-.57.29ZM197,168a1.74,1.74,0,0,1,.54.35,4.23,4.23,0,0,1,.73,1.28l5.33,13.23c.24.62.39.95.44,1l0,.07a2.59,2.59,0,0,0,.24-.17l.6-1.25c.36-.78,1.27-2.91,2.79-6.53l2.44-5.85a5.24,5.24,0,0,1,1.26-2.12l.25-.14-.86,0-.85,0-.65.11a2.26,2.26,0,0,1,.38.38l.06.06v.08a3.75,3.75,0,0,1-.21.89c-.27.86-1,2.86-2.06,5.49-1.19,3.06-2,5.13-2.62,6.51l-.21.47-4.37-11.53a10.16,10.16,0,0,1-.59-1.88c0-.3.18-.47.49-.61l-1.56.05-1,0L197,168Zm-29.22,16.35c-.1,0-.28,0-1.73-1.45-1.61-1.57-3.52-3.54-5.7-5.85-1.83-2-3.61-3.89-5.3-5.77l.26,9.76a10.39,10.39,0,0,0,.11,1.39c.1.53.3.83.59.91a3.78,3.78,0,0,0,1,.12l0,.43-1.77.26-.79,0-2.42.08.13-.32a1,1,0,0,1,.78-.52l.11,0c.22-.07.37-.42.44-1,0-.23,0-.77,0-1.5l0-12.37c0-.78.07-1.3.45-1.3.12,0,.22,0,.92.77l6.93,7.4,4.84,5.22-.22-10.4a4.08,4.08,0,0,0-.19-1.41.6.6,0,0,0-.47-.42,4.1,4.1,0,0,0-1-.12l0-.43,1.68-.26.88,0,2.67-.09-.71.43c-.68.41-.88.57-1,.78a4.73,4.73,0,0,0-.12,1.33l0,12.65c0,1.33-.1,1.74-.42,1.74Zm-13.19-14.22.39.43c1.8,2,3.71,4.1,5.68,6.2,2.17,2.3,4.08,4.26,5.69,5.84a17,17,0,0,0,1.35,1.25,7.23,7.23,0,0,0,.07-1.24l0-12.65a5.06,5.06,0,0,1,.15-1.48,1.23,1.23,0,0,1,.49-.57l-1.09,0-.85,0-.3.05a1,1,0,0,1,.54.59,4.81,4.81,0,0,1,.21,1.56l.25,11.53-5.6-6-6.93-7.41a7.39,7.39,0,0,0-.58-.56,4,4,0,0,0-.06.8l0,12.37c0,.95,0,1.45,0,1.54-.09.8-.32,1.25-.71,1.39l1.25,0,.77,0,.39-.06a1.53,1.53,0,0,1-.66-1.14,8.67,8.67,0,0,1-.12-1.47l-.3-10.92Zm180.22,14.14c-1.35,0-2.61,0-3.71-.07l-1.69-.07-3,.1.76-.43a1.63,1.63,0,0,0,1-1.43c.06-.63.1-2.37.1-4.64v-3.81c0-2.82,0-4.21-.05-4.64a1,1,0,0,0-.77-1,2.9,2.9,0,0,0-.69-.06l0-.43,1.74-.26.92,0,5,0a5,5,0,0,0,.9-.1l.21,0,.27,1.32c0,.41,0,.83-.09,1.33l-.05.62-.33-.34a1.9,1.9,0,0,1-.45-.75s0-.09-.05-.13c-.14-.3-.62-.51-1.38-.6-.38,0-1.35-.07-2.75-.07l-.13,5.77a20.27,20.27,0,0,0,3.36.14c.19,0,.75-.07.91-.25l.28-.3.34,1.55,0,.22c0,.5-.08.9-.08,1.16v.8l-.4-.69c-.51-.89-.83-1.06-1.35-1.13s-1.58-.1-2.89-.1l-.15,5.54c0,.82.24,1.14.4,1.26a4,4,0,0,0,1.91.27,5.71,5.71,0,0,0,2-.22,1.65,1.65,0,0,0,.86-1.38l.11-.64.29.58a3.12,3.12,0,0,1,.06,2.24l0,.08a1.45,1.45,0,0,1-1.34.65Zm-5.4-.57,1.7.07c1.1,0,2.35.07,3.7.07a1,1,0,0,0,1-.45,4.1,4.1,0,0,0,.15-1.2,1.72,1.72,0,0,1-.9.95,6.09,6.09,0,0,1-2.18.25,4.46,4.46,0,0,1-2.16-.35,2.1,2.1,0,0,1-.58-1.6l.17-6h.21a29.8,29.8,0,0,1,3.13.11,1.78,1.78,0,0,1,1.32.78c0-.16,0-.34.05-.54v-.15l-.17-.79a3.07,3.07,0,0,1-.88.19,21.24,21.24,0,0,1-3.65-.16l-.19,0,.14-6.59h.21c1.55,0,2.59,0,3,.07.93.11,1.51.4,1.72.85l.06.17.05.12c0-.3,0-.57.05-.8l-.18-.85a5.35,5.35,0,0,1-.77.07l-5,0-.89,0L328,168a1.48,1.48,0,0,1,.66,1.25c0,.44,0,1.84,0,4.67v3.81c0,2.28,0,4-.1,4.69a1.91,1.91,0,0,1-.61,1.32l1.4,0Zm-99.4.57c-1.35,0-2.61,0-3.71-.07l-1.68-.07-3,.1.77-.43a1.6,1.6,0,0,0,1-1.43c.08-.53.11-2,.11-4.64v-3.81c0-2.4,0-4.14,0-4.64a1,1,0,0,0-.76-1,3.12,3.12,0,0,0-.7-.06l0-.43,1.74-.26.93,0,5,0a4.88,4.88,0,0,0,.89-.1l.22,0,.25,1.33c0,.44-.05.93-.11,1.48l-.06.47-.31-.35a2,2,0,0,1-.43-.73l-.06-.14c-.14-.32-.62-.52-1.38-.61-.38,0-1.35-.07-2.75-.07l-.12,5.77a20.11,20.11,0,0,0,3.35.14,1.73,1.73,0,0,0,.93-.25l.27-.29.33,1.55v0a11.46,11.46,0,0,0-.09,1.34v.79l-.4-.68c-.52-.89-.84-1.06-1.37-1.13a28.42,28.42,0,0,0-2.88-.1l-.14,5.54c0,.82.23,1.14.38,1.25A4,4,0,0,0,228,183a5.68,5.68,0,0,0,2-.22,1.66,1.66,0,0,0,.85-1.38l.11-.64.29.58a3.15,3.15,0,0,1,.07,2.24l0,.08a1.49,1.49,0,0,1-1.35.65Zm-5.39-.57,1.69.07c1.1,0,2.35.07,3.7.07a1,1,0,0,0,1-.46,3.76,3.76,0,0,0,.14-1.2,1.72,1.72,0,0,1-.89,1,6.1,6.1,0,0,1-2.17.25,4.56,4.56,0,0,1-2.18-.35,2,2,0,0,1-.57-1.61l.16-6h.2a29.43,29.43,0,0,1,3.13.11,1.77,1.77,0,0,1,1.33.77c0-.21,0-.44.06-.68l-.17-.79a3,3,0,0,1-.88.19,22.28,22.28,0,0,1-3.64-.16l-.19,0,.13-6.59h.21c1.55,0,2.59,0,3,.07.93.11,1.51.4,1.71.86a.54.54,0,0,1,.07.17,1.17,1.17,0,0,1,.05.11c0-.29,0-.56,0-.8l-.17-.85a5.33,5.33,0,0,1-.76.07l-5,0-.9,0-.51.08a1.42,1.42,0,0,1,.66,1.25c0,.52,0,2.22,0,4.67v3.81c0,2.65,0,4.15-.11,4.7a1.9,1.9,0,0,1-.61,1.31l1.41,0Zm-200.33.53,1.19-.45a3.36,3.36,0,0,0,2.13-2.25l4.93-13.39c.29-.76.46-1,.69-1s.38.16.68.92c1.54,4,3.24,8.38,5.07,13,.56,1.37,1.19,2.15,1.88,2.31a2.93,2.93,0,0,0,.67.08l0,.43a15.43,15.43,0,0,1-3.69.26c-.38,0-.86,0-.86-.36v-.13l.11-.06c.28-.16.28-.23.19-.48l-2-5.16-4.58-.13-1.47,3.85a4.37,4.37,0,0,0-.3,1.37c0,.14,0,.41.62.41H31l-2.21.69-.79,0-3.72.1Zm8.94-16.59a4.23,4.23,0,0,0-.29.65L28,181.68a4,4,0,0,1-1.49,2.06l1.49,0,.73,0,.11,0a.8.8,0,0,1-.28-.64,4.64,4.64,0,0,1,.32-1.51l1.58-4.14,5.17.14L37.67,183a.73.73,0,0,1-.05.74h.23a14.07,14.07,0,0,0,2.43-.08,4.51,4.51,0,0,1-1.74-2.41c-1.83-4.64-3.54-9-5.08-13a2.77,2.77,0,0,0-.28-.58Zm17.13,16.59.78-.44a1.57,1.57,0,0,0,1-1.42c.08-.55.11-2.06.11-4.64v-3.81c0-2.8,0-4.24,0-4.64a1,1,0,0,0-.77-1,3.31,3.31,0,0,0-.7-.06l0-.43,1.69-.26.92,0,3-.09-.82.43c-.85.45-1,.83-1.06,1.43,0,.44,0,1.91,0,4.64v.78l4.83-4.85a6.33,6.33,0,0,0,1.09-1.35l-.12-.14c-.3-.34-.35-.4-.35-.55v-.19l1.24-.13.88,0,2.55-.08-.3.37a2,2,0,0,1-.91.56l-.29.13a8.67,8.67,0,0,0-2.28,1.79c-2.42,2.29-4,3.86-4.65,4.57.38.42,1.26,1.32,2.74,2.83s2.66,2.69,3.11,3.1c1,.93,1.62,1.46,1.9,1.69a5.42,5.42,0,0,0,1.27.72,3.26,3.26,0,0,0,1.27.27h1.84l-3.09.73a15.7,15.7,0,0,1-1.58,0,3.41,3.41,0,0,1-1.46-.44,9.33,9.33,0,0,1-1.28-.92c-.53-.44-1.74-1.66-3.33-3.35-1.35-1.45-2.36-2.55-3-3.28l-.08,1.58c0,2.39,0,4,.1,4.64.11.92.54,1,.68,1l2.51.25-3.43.52-.95,0-3,.1Zm4-8.87.09.11c.59.7,1.71,1.94,3.34,3.67s2.78,2.9,3.29,3.32a10.22,10.22,0,0,0,1.21.87,2.86,2.86,0,0,0,1.3.39c.31,0,.81.05,1.49.05l.22-.05-.35-.13a5.82,5.82,0,0,1-1.36-.78c-.31-.23-.92-.78-1.94-1.72-.46-.41-1.59-1.55-3.12-3.11-1.71-1.74-2.58-2.63-2.89-3l-.11-.14.11-.13c.54-.64,2.21-2.28,4.81-4.74a9.9,9.9,0,0,1,2.4-1.88l.3-.13.14-.06-1.32,0-.86,0-.67.07.08.09.25.28v.08c0,.2-.15.56-1.24,1.71l-5.17,5.21ZM51.92,168a1.44,1.44,0,0,1,.67,1.26c0,.54,0,2.28,0,4.67v3.81c0,2.6,0,4.14-.12,4.7a1.85,1.85,0,0,1-.6,1.31l1.37,0,.93,0,.45-.07a1.58,1.58,0,0,1-.61-1.23c-.07-.65-.1-2.28-.1-4.69l.1-2.09-.1.1v-1.82c0-2.77,0-4.21,0-4.67a1.75,1.75,0,0,1,.62-1.35l-1.35,0-.89,0-.45.07ZM74.3,184.23l.78-.44a1.6,1.6,0,0,0,1-1.42c.07-.52.1-2,.1-4.64v-3.81c0-2.66,0-4.19,0-4.64-.06-.79-.36-1-.58-1a2.15,2.15,0,0,0-.64-.09l0-.43,1.5-.25h.92l3.05-.09-.82.43c-.85.45-1,.83-1.06,1.43,0,.45,0,2,0,4.64v3.81c0,2.68,0,4.07.1,4.64.11.84.43,1,.67,1a6.51,6.51,0,0,0,1,.08l0,.43-1.92.26-1,0-3,.1ZM76,168a1.51,1.51,0,0,1,.57,1.25c0,.46,0,2,0,4.67v3.81c0,2.7,0,4.15-.1,4.69a2,2,0,0,1-.61,1.32l1.41,0,.93,0,.5-.07a1.61,1.61,0,0,1-.61-1.23c-.07-.59-.1-2-.1-4.69v-3.81c0-2.73,0-4.21,0-4.67a1.75,1.75,0,0,1,.62-1.35l-1.37,0-.89,0L76,168Zm104.62,16.23.76-.43a1.6,1.6,0,0,0,1-1.43c.07-.55.11-2.11.11-4.64v-3.81c0-2.83,0-4.22,0-4.64-.07-.88-.46-1-.59-1a2,2,0,0,0-.62-.09l0-.43,1.51-.25h.92l3.05-.09-.83.43c-.86.45-1,.82-1.06,1.43,0,.45,0,2,0,4.64v3.81c0,2.34,0,4,.11,4.64.1.84.43,1,.67,1a7.57,7.57,0,0,0,.94.08l0,.43-1.94.26-.93,0-3,.1ZM182.3,168a1.51,1.51,0,0,1,.57,1.25c0,.44,0,1.8,0,4.67v3.81c0,2.59,0,4.12-.11,4.69a1.86,1.86,0,0,1-.6,1.32l1.42,0,.91,0,.51-.07a1.55,1.55,0,0,1-.61-1.23c-.08-.67-.12-2.3-.12-4.69v-3.81c0-2.68,0-4.21.06-4.67a1.75,1.75,0,0,1,.62-1.35l-1.36,0-.89,0-.44.08Zm185,16.23.76-.43a1.63,1.63,0,0,0,1-1.43c.07-.6.11-2.3.11-4.64v-3.81c0-3.24,0-4.31-.05-4.64-.06-.88-.45-1-.58-1a2.13,2.13,0,0,0-.63-.09l0-.43,1.51-.25h.92l3.05-.09-.83.43c-.77.41-1,.76-1.06,1.43,0,.51,0,2.24,0,4.64v3.81c0,2.45,0,4,.11,4.64.09.84.43,1,.67,1a7.57,7.57,0,0,0,.94.08l0,.43-1.94.26-.94,0-3,.1ZM369,168a1.48,1.48,0,0,1,.57,1.25c0,.48.06,2.1.06,4.67v3.81c0,2.36-.05,4.07-.12,4.69a1.94,1.94,0,0,1-.6,1.32l1.41,0,.92,0,.5-.07a1.58,1.58,0,0,1-.61-1.23c-.07-.64-.11-2.22-.11-4.69v-3.81c0-2.4,0-4.15.05-4.67a1.74,1.74,0,0,1,.63-1.35l-1.37,0-.88,0L369,168Zm-82.44,16.23.76-.43a1.58,1.58,0,0,0,1-1.43c.07-.55.11-2.06.11-4.64v-3.81c0-2.46,0-4.15,0-4.64-.05-.88-.44-1-.57-1a2.23,2.23,0,0,0-.63-.09l0-.43,1.51-.25h.92l3-.09-.83.43c-.86.45-1,.83-1.07,1.43s0,2.13,0,4.64v3.81c0,2.69,0,4.07.1,4.64.1.84.44,1,.68,1a6.31,6.31,0,0,0,.94.08l0,.43-1.94.26-.94,0-3,.1ZM288.22,168a1.53,1.53,0,0,1,.56,1.25c0,.5.05,2.2.05,4.67v3.81c0,2.6,0,4.14-.12,4.7a1.88,1.88,0,0,1-.6,1.31l1.42,0,.92,0,.5-.07a1.58,1.58,0,0,1-.61-1.23c-.08-.59-.11-1.95-.11-4.69v-3.81c0-2.52,0-4.18,0-4.66a1.73,1.73,0,0,1,.63-1.36l-1.36,0-.89,0-.43.08Zm18.3,16.23.76-.43a1.56,1.56,0,0,0,1-1.43c.08-.52.11-2,.11-4.64V168.8l-3,0a10.6,10.6,0,0,0-1.19.08,1.39,1.39,0,0,0-.86.51l-.35.68-.18-.09c-.63-.3-.36-1.28-.07-2.31l0-.09.72-.37.09,0a1.44,1.44,0,0,0,.55.12c.79.06,1.37.1,1.71.1H314a9.44,9.44,0,0,0,1.49-.1l.86-.14.07,1.84-.05,2.13-.38-1c-.36-1-1.16-1.34-2.83-1.37l-2.52,0v8.93c0,2.4,0,4,.11,4.64.1.84.43,1,.66,1a8.19,8.19,0,0,0,.95.08l0,.43-1.94.26-1,0-3,.1Zm2.3-15.86v9.36c0,2.75,0,4.15-.12,4.7a1.83,1.83,0,0,1-.59,1.31l1.41,0,.93,0,.5-.07a1.58,1.58,0,0,1-.6-1.23c-.08-.65-.12-2.27-.12-4.69v-9.36l3,0a3.47,3.47,0,0,1,2.82,1v-.26l-.06-1.34-.39.07a11.75,11.75,0,0,1-1.55.1h-8.18c-.35,0-.94,0-1.74-.1a2.48,2.48,0,0,1-.59-.11l-.38.19a4.25,4.25,0,0,0-.26,1.52l.11-.22a1.74,1.74,0,0,1,1.14-.71,11.57,11.57,0,0,1,1.26-.09l3.44,0ZM91.5,184.23l.77-.44a1.56,1.56,0,0,0,1-1.42c.08-.53.11-2.05.11-4.64v-3.81c0-2.82,0-4.21,0-4.64a1,1,0,0,0-.77-1,2.9,2.9,0,0,0-.69-.06l0-.43,1.74-.26.93,0,5.35,0a7.14,7.14,0,0,0,.94-.08l.19,0,.31,1.31v0c0,.46,0,.93-.11,1.43l0,.41-.3-.27a1.72,1.72,0,0,1-.5-.75s0-.11-.08-.17c-.16-.36-.59-.54-1.3-.57l-3.15-.05-.17,5.78,2.74.16,1.05,0a1.12,1.12,0,0,0,.75-.31l.31-.43.23,1.69c0,.7-.07,1.15-.07,1.47v.19l-.19,0c-.52,0-.6-.37-.66-.68a1,1,0,0,0-1-.66c-.34,0-1.48-.07-3.06-.07l-.14,1.84c0,2.51,0,4,.11,4.63s.29,1,.68,1a7.57,7.57,0,0,0,.94.08l0,.43-1.94.26-1,0-3,.1ZM93.11,168a1.44,1.44,0,0,1,.65,1.25c0,.44,0,1.84,0,4.67v3.81c0,2.65,0,4.14-.11,4.7a1.89,1.89,0,0,1-.61,1.31l1.41,0,.93,0,.5-.07a1.51,1.51,0,0,1-.61-1.23c-.08-.62-.11-2.11-.11-4.69l.16-2.26h.2c1.72,0,2.93,0,3.31.07a1.46,1.46,0,0,1,1.32.93l0,.08a.29.29,0,0,0,0,.09c0-.27,0-.6.06-1l-.11-.74a2,2,0,0,1-.73.2l-1.09,0-3.17-.18.2-6.62,3.58.06c.89,0,1.43.3,1.67.82l.08.18.09.2c0-.29,0-.56.05-.84l-.2-.87a6.43,6.43,0,0,1-.8.06l-5.36,0-.9,0-.5.08Zm149.35,16.23.77-.44a1.59,1.59,0,0,0,1-1.42c0-.39.11-1.52.11-4.64v-3.81c0-2.75,0-4.22,0-4.64a1,1,0,0,0-.77-1,3.37,3.37,0,0,0-.7-.06l0-.43,1.75-.26.93,0,2.56-.06a7,7,0,0,1,4.12,1,3.65,3.65,0,0,1,1.59,3.11,7,7,0,0,1-2.56,5l2.33,2.95c.81,1,1.51,1.82,2.06,2.4a4.45,4.45,0,0,0,2.53,1.49,5.27,5.27,0,0,0,.82.06l0,.43-1.87.3h0a5.29,5.29,0,0,1-2.45-.43,5.1,5.1,0,0,1-1.4-1.22c-.23-.25-.72-.85-1.6-2l-2.31-3.11-2.69-.16-.11.51c0,2.59,0,4,.11,4.6.1.83.43,1,.67,1a6.41,6.41,0,0,0,1,.08l0,.43-1.93.26-1,0-2.92.1Zm3.82-7.42,3.25.19,2.43,3.27c.87,1.14,1.34,1.73,1.58,2a4.63,4.63,0,0,0,1.28,1.13,4.93,4.93,0,0,0,2.25.39l.43-.07a5.24,5.24,0,0,1-2.23-1.5c-.56-.58-1.26-1.39-2.08-2.42l-2.58-3.26.15-.14a6.67,6.67,0,0,0,2.56-4.83,3.24,3.24,0,0,0-1.41-2.76,6.68,6.68,0,0,0-3.87-.91l-2.56.06-.9,0-.51.08a1.42,1.42,0,0,1,.65,1.25c0,.43.05,1.92.05,4.67v3.81c0,2.53,0,4.11-.11,4.69a1.91,1.91,0,0,1-.61,1.32l1.33,0,.93,0,.5-.07a1.62,1.62,0,0,1-.62-1.23c-.07-.6-.1-2-.1-4.69l.19-.92Zm-211,.25h-4.6l-.17-.36L33,170.22l2.28,6.84ZM31,176.63h3.68L33,171.49l-2,5.14Zm217.74,0a3.68,3.68,0,0,1-2.57-.67l-.07-.06v-7.22l.25-.38.08,0a5.71,5.71,0,0,1,1.51-.13,3.69,3.69,0,0,1,2.91,1.22,4.83,4.83,0,0,1,1.07,3.31c0,1.69-.48,2.86-1.42,3.5a3.1,3.1,0,0,1-1.76.46Zm-2.22-.93a3.48,3.48,0,0,0,2.22.5,2.69,2.69,0,0,0,1.52-.38c.83-.57,1.23-1.59,1.23-3.15a4.31,4.31,0,0,0-1-3,3.21,3.21,0,0,0-2.59-1.08,6.59,6.59,0,0,0-1.32.09l-.1.15v6.89Zm123.73-8.57a1.37,1.37,0,0,1-1.11-.49,1.41,1.41,0,0,1-.34-1,1.51,1.51,0,0,1,.33-1,1.38,1.38,0,0,1,1.12-.5,1.51,1.51,0,0,1,1.05.37,1.36,1.36,0,0,1,.44,1,1.59,1.59,0,0,1-.4,1.07,1.48,1.48,0,0,1-1.09.44Zm0-2.48a1,1,0,0,0-.79.34,1.08,1.08,0,0,0-.23.69,1,1,0,0,0,.23.68,1,1,0,0,0,.79.34,1,1,0,0,0,.77-.31,1.12,1.12,0,0,0,.29-.77.93.93,0,0,0-.3-.71,1,1,0,0,0-.76-.26Zm-80.76,2.48a1.37,1.37,0,0,1-1.12-.5,1.39,1.39,0,0,1-.33-.95,1.45,1.45,0,0,1,.33-1,1.37,1.37,0,0,1,1.12-.5,1.42,1.42,0,0,1,1,.38,1.32,1.32,0,0,1,.44,1,1.56,1.56,0,0,1-.4,1.07,1.44,1.44,0,0,1-1.08.44Zm0-2.48a1,1,0,0,0-.79.34,1,1,0,0,0-.24.69,1,1,0,0,0,.24.68,1,1,0,0,0,.79.34,1,1,0,0,0,.77-.31,1.07,1.07,0,0,0,.28-.77.91.91,0,0,0-.3-.71,1,1,0,0,0-.75-.26Zm-105.9,2.48a1.42,1.42,0,0,1-1.13-.49,1.46,1.46,0,0,1-.32-1,1.51,1.51,0,0,1,.31-1,1.43,1.43,0,0,1,1.14-.5,1.41,1.41,0,0,1,1,.38,1.29,1.29,0,0,1,.44,1,1.52,1.52,0,0,1-.41,1.07,1.42,1.42,0,0,1-1.06.44Zm0-2.48a1,1,0,0,0-.81.35,1.16,1.16,0,0,0,0,1.36,1,1,0,0,0,.81.34,1,1,0,0,0,.75-.3,1.1,1.1,0,0,0,.29-.78.87.87,0,0,0-.3-.71,1,1,0,0,0-.74-.26ZM137.23,166a1.27,1.27,0,0,1-1.08-.47,1.57,1.57,0,0,1-.34-1,1.51,1.51,0,0,1,.34-1,1.31,1.31,0,0,1,1.11-.48,1.42,1.42,0,0,1,1,.37,1.25,1.25,0,0,1,.43,1,1.56,1.56,0,0,1-.4,1.11,1.46,1.46,0,0,1-1.09.44Zm0-2.49a.87.87,0,0,0-.77.32,1.08,1.08,0,0,0-.26.7,1.15,1.15,0,0,0,.25.73.89.89,0,0,0,.75.31,1.06,1.06,0,0,0,.79-.3,1.2,1.2,0,0,0,.28-.82.81.81,0,0,0-.3-.68,1,1,0,0,0-.74-.26ZM131.35,166a1.29,1.29,0,0,1-1.09-.47,1.61,1.61,0,0,1-.34-1,1.58,1.58,0,0,1,.34-1,1.3,1.3,0,0,1,1.11-.49,1.48,1.48,0,0,1,1,.37,1.27,1.27,0,0,1,.43,1,1.64,1.64,0,0,1-.4,1.11,1.43,1.43,0,0,1-1.09.44Zm0-2.49a.91.91,0,0,0-.78.32,1.14,1.14,0,0,0-.24.7,1.16,1.16,0,0,0,.24.73.9.9,0,0,0,.76.31,1,1,0,0,0,.78-.3,1.26,1.26,0,0,0,.29-.82.85.85,0,0,0-.3-.68,1.05,1.05,0,0,0-.75-.26Z"/><polygon class="cls-4" points="0.77 197.34 164.35 197.34 164.35 195.94 0.77 195.94 0.77 197.34 0.77 197.34"/><polygon class="cls-4" points="208.88 197.34 372.46 197.34 372.46 195.94 208.88 195.94 208.88 197.34 208.88 197.34"/><path class="cls-4" d="M195,203c5.68-.4,7.05-3.06,7.05-4.94,0-2.32-2-4.38-5.22-4.38a5.29,5.29,0,0,0-.79.08l.47-2.38,5.17.08c.41-1.47.57-1.75.57-1.89s-.08-.25-.2-.25c-.39,0-.43.73-1.37.73H196.1l-.9,5c3.24,0,5.4,1,5.4,3.31,0,3.35-4,4.26-5.62,4.36V203Zm-4.19-5v4.8h1.34V198h1.59V197h-1.59v-7.1h-.87l-5.18,7.62V198Zm0-1.05H187l3.71-5.51h0V197Zm-7.42-4.42a3.49,3.49,0,0,1-1.5,2.67c-.57-.21-2.61-.91-2.61-2.95a2.06,2.06,0,1,1,4.11.28m.19,7.47a2.42,2.42,0,1,1-4.81-.21,3.65,3.65,0,0,1,2.1-3.1,3.43,3.43,0,0,1,2.71,3.31m.83-7.49a2.68,2.68,0,0,0-2.91-2.66,3.25,3.25,0,0,0-3.44,3.31,3.74,3.74,0,0,0,2.16,3.21c-.71.48-2.46,1.75-2.46,3.67a3.11,3.11,0,0,0,3.35,2.92,3.54,3.54,0,0,0,3.69-3.71,4.25,4.25,0,0,0-2.2-3.63,4.38,4.38,0,0,0,1.81-3.11m-13.84,10.29h4.76v-.32c-1.36,0-1.61-.29-1.61-1.82V190.05a.17.17,0,0,0-.18-.18.59.59,0,0,0-.31.14,5.19,5.19,0,0,1-2.7,1v.32c1.5,0,1.69.25,1.69,1.15v8.21c0,1.53-.25,1.82-1.65,1.82v.32Z"/><polygon class="cls-5" points="187.51 0 98.55 13.5 98.55 14.09 108.74 19.93 111.68 19.93 111.68 16.74 262.24 16.74 262.24 20.04 265.18 20.04 276.46 14.09 276.46 13.5 187.51 0 187.51 0"/><polyline class="cls-6" points="177.59 50.85 177.59 47.07 196.74 47.07 196.74 50.85"/><path class="cls-7" d="M207.64,42.92h8.58V23.09h-8.58V42.92Zm-49.09,0h8.59V23.09h-8.59V42.92Zm-37.45,0h8.58V23.09H121.1V42.92Zm123.33,0H253V23.09h-8.59V42.92Z"/><path class="cls-3" d="M211.93,23.38V43.16M162.84,23V43.16M125.39,23.38V43.16m123.33-20v20"/><path class="cls-8" d="M0,99.51H150m74.28,0H373.92M102.13,52.08h171.6M1.42,52.25v48.68m371.33-46.2v46.2M110.26,16.52V31.64l-4,4h-4.15V98.25M263.66,16.52V31.64l4,4h4.15V98.25"/><line class="cls-9" x1="102.13" y1="90.38" x2="271.73" y2="90.38"/><path class="cls-10" d="M165,95.24h44.24m-52.13,4.57h60"/><polygon class="cls-5" points="271.73 50.16 271.73 56.98 374.17 56.98 374.17 50.16 271.73 50.16 271.73 50.16"/><polygon class="cls-5" points="0 50.16 0 56.98 101.11 56.98 101.11 50.16 0 50.16 0 50.16"/><path class="cls-8" d="M148.63,15.74v85.19M225.7,15.74v85.19"/><path class="cls-1" d="M346.45,90.4V73s1.82-4.6,6-5.21A9.91,9.91,0,0,1,358.09,73V90.4Z"/><path class="cls-2" d="M346,74h12.45M346,85.18h12.45"/><line class="cls-3" x1="352.27" y1="68.55" x2="352.27" y2="89.67"/><path class="cls-1" d="M326.45,90.4V73s1.82-4.6,6-5.21A9.91,9.91,0,0,1,338.08,73V90.4Z"/><path class="cls-2" d="M326,74h12.45M326,85.18h12.45"/><line class="cls-3" x1="332.26" y1="68.55" x2="332.26" y2="89.67"/><path class="cls-1" d="M306.44,90.4V73s1.82-4.6,6-5.21A9.91,9.91,0,0,1,318.08,73V90.4Z"/><path class="cls-2" d="M306,74h12.45M306,85.18h12.45"/><line class="cls-3" x1="312.26" y1="68.55" x2="312.26" y2="89.67"/><path class="cls-1" d="M286.44,90.4V73s1.81-4.6,6-5.21A9.91,9.91,0,0,1,298.07,73V90.4Z"/><path class="cls-2" d="M286,74h12.45M286,85.18h12.45"/><line class="cls-3" x1="292.25" y1="68.55" x2="292.25" y2="89.67"/><path class="cls-2" d="M125.39,59.42V89.3M118,66.58h14.87M118,83h14.87"/><path class="cls-11" d="M133.21,89.57v-23s-1.72-6.37-7.87-8c0,0-5.38,1.32-7.77,8v23"/><path class="cls-2" d="M165.61,59.42V89.3m-7.4-22.72h14.88M158.21,83h14.88"/><path class="cls-11" d="M173.43,89.57v-23s-1.72-6.37-7.87-8c0,0-5.38,1.32-7.77,8v23"/><path class="cls-2" d="M186.93,59.42V89.3m-7.4-22.72h14.88M179.53,83h14.88"/><path class="cls-11" d="M194.76,89.57v-23s-1.73-6.37-7.88-8c0,0-5.38,1.32-7.77,8v23"/><path class="cls-2" d="M208.74,59.42V89.3m-7.4-22.72h14.88M201.34,83h14.88"/><path class="cls-11" d="M216.57,89.57v-23s-1.73-6.37-7.88-8c0,0-5.38,1.32-7.77,8v23"/><path class="cls-2" d="M248.72,59.42V89.3m-7.4-22.72H256.2M241.32,83H256.2"/><path class="cls-11" d="M256.55,89.57v-23s-1.73-6.37-7.88-8c0,0-5.38,1.32-7.77,8v23"/></g></g></svg>