<?xml version="1.0" encoding="UTF-8" standalone="no"?>
<svg
   xmlns:dc="http://purl.org/dc/elements/1.1/"
   xmlns:cc="http://creativecommons.org/ns#"
   xmlns:rdf="http://www.w3.org/1999/02/22-rdf-syntax-ns#"
   xmlns:svg="http://www.w3.org/2000/svg"
   xmlns="http://www.w3.org/2000/svg"
   xmlns:xlink="http://www.w3.org/1999/xlink"
   xmlns:sodipodi="http://sodipodi.sourceforge.net/DTD/sodipodi-0.dtd"
   xmlns:inkscape="http://www.inkscape.org/namespaces/inkscape"
   version="1.1"
   id="svg5102"
   x="0px"
   y="0px"
   width="999.99994"
   height="314.72092"
   viewBox="0.002 14.004 999.99994 314.7209"
   enable-background="new 0.002 14.004 999.996 543.861"
   xml:space="preserve"
   sodipodi:docname="Danone_2017.svg"
   inkscape:version="1.0.2 (e86c870879, 2021-01-15)"><metadata
   id="metadata54"><rdf:RDF><cc:Work
       rdf:about=""><dc:format>image/svg+xml</dc:format><dc:type
         rdf:resource="http://purl.org/dc/dcmitype/StillImage" /><dc:title></dc:title></cc:Work></rdf:RDF></metadata><defs
   id="defs52"><radialGradient
     id="radialGradient4383-8"
     cx="316.37"
     cy="330.67001"
     r="12.506"
     gradientTransform="matrix(0.9117,0.90347,-1.9543,1.9721,418.39159,-912.8997)"
     gradientUnits="userSpaceOnUse"><stop
       id="stop6296-2"
       stop-color="#ee277c"
       offset="0" /><stop
       id="stop6302-3"
       stop-color="#f16476"
       offset=".46666" /><stop
       id="stop4385-3"
       stop-color="#f6a358"
       offset=".7891" /><stop
       id="stop4387-4"
       stop-color="#fbc42b"
       offset=".91524" /><stop
       id="stop6298-2"
       stop-color="#fbce13"
       offset="1" /></radialGradient><radialGradient
     inkscape:collect="always"
     xlink:href="#linearGradient958"
     id="radialGradient960"
     cx="194.00449"
     cy="-278.33484"
     fx="194.00449"
     fy="-278.33484"
     r="171.62241"
     gradientTransform="matrix(3.3640403,-5.9546942e-4,-1.5927622e-4,-0.89911707,-203.876,-52.568468)"
     gradientUnits="userSpaceOnUse" /><linearGradient
     inkscape:collect="always"
     id="linearGradient958"><stop
       style="stop-color:#3e98d3;stop-opacity:1"
       offset="0"
       id="stop954" /><stop
       style="stop-color:#192777;stop-opacity:1"
       offset="1"
       id="stop956" /></linearGradient></defs><sodipodi:namedview
   pagecolor="#ffffff"
   bordercolor="#666666"
   borderopacity="1"
   objecttolerance="10"
   gridtolerance="10"
   guidetolerance="10"
   inkscape:pageopacity="0"
   inkscape:pageshadow="2"
   inkscape:window-width="1366"
   inkscape:window-height="705"
   id="namedview50"
   showgrid="false"
   inkscape:zoom="0.23969534"
   inkscape:cx="732.02485"
   inkscape:cy="106.35524"
   inkscape:window-x="-8"
   inkscape:window-y="-8"
   inkscape:window-maximized="1"
   inkscape:current-layer="svg5102"
   inkscape:document-rotation="0" />

<path
   style="fill:#e30613;fill-opacity:1;stroke-width:0.28502"
   d="m 488.741,328.50864 c -47.6657,-1.73532 -96.6321,-13.35958 -146.6919,-34.82349 -20.3727,-8.73508 -41.9192,-19.55567 -63.8445,-32.0625 -14.4605,-8.24867 -47.5622,-28.50849 -49.4052,-30.23833 -1.1594,-1.08822 -1.6134,-2.10914 -1.6134,-3.62805 0,-2.81116 2.0205,-4.81956 4.8441,-4.81502 1.4636,0.002 1.8175,0.15662 5.2741,2.29909 13.8726,8.59841 33.0611,18.3381 51.7579,26.27131 87.0776,36.94783 190.2403,49.92211 289.2686,36.3799 67.6297,-9.2484 132.6353,-30.88816 183.3438,-61.03337 7.316,-4.34922 7.9909,-4.5778 10.1825,-3.44857 3.0278,1.56015 3.6845,5.37955 1.3266,7.71597 -0.9272,0.91873 -2.0656,1.64777 -18.7106,11.98202 -44.3918,27.56136 -80.2323,45.75772 -117.5492,59.68018 -50.1929,18.72637 -100.4922,27.45708 -148.1828,25.72086 z"
   id="path846"
   inkscape:connector-curvature="0" /><path
   d="m 0.002,18.86825 c 0,0 0.9386,2.95403 1.8465,11.34927 1.0884,20.91361 1.1461,38.24887 1.2719,57.57793 0.2506,14.92605 0.104,29.47025 -0.025,43.47553 -0.087,9.48443 -0.1526,14.65429 -0.1526,23.27756 0,25.66101 -2.0354,43.64637 -2.0354,43.64637 0,0 18.9717,4.08201 47.6075,4.08201 28.6458,0 59.0396,-9.91208 76.5776,-24.78487 17.5338,-14.87178 33.3134,-36.15997 33.3134,-74.35466 0,-38.19618 -16.3647,-59.19187 -37.9894,-72.89406 C 98.7855,16.53486 65.7609,13.91484 40.3321,15.07918 14.9095,16.24823 0.882,18.86825 0.0023,18.86825 Z m 995.9987,143.75202 -38.2571,-9.03699 c -10.0379,9.90893 -20.8838,14.833 -34.8104,14.57624 -28.6758,-0.52452 -42.9265,-17.38802 -48.2249,-45.19695 h 123.3273 c 1.7526,-9.9131 2.3288,-20.41048 1.7479,-30.32361 C 998.6117,72.61626 992.4483,54.18719 979.9109,38.4068 967.5005,22.78361 946.15,14.59028 919.7521,14.78626 c -24.7871,0.18759 -45.0467,8.66284 -61.0853,25.66311 -15.0726,15.9706 -24.0948,40.32561 -23.6751,72.01634 0.4033,30.10668 8.0814,52.52255 26.8879,70.85798 13.0926,12.76526 30.6915,19.58308 53.7768,19.53381 43.9871,-1.32352 62.2646,-15.468 80.3443,-40.23723 z m -31.316,-70.56084 h -88.5282 c 1.562,-22.84503 22.5259,-44.12196 44.7357,-44.01664 22.9887,0.10532 42.7326,16.51065 43.7925,44.01664 z M 576.4792,49.35377 c 29.2772,0 53.019,26.44266 53.019,59.04934 0,32.60669 -23.7418,59.05056 -53.019,59.05056 -29.2671,0 -53.0132,-26.44387 -53.0132,-59.05056 0,-32.60668 23.7461,-59.04934 53.0132,-59.04934 z M 577.6193,14.004 c 49.1287,0 88.9648,42.58679 88.9648,94.39911 0,51.81249 -40.9762,93.82927 -90.1049,93.82927 -49.1187,0 -88.959,-42.01678 -88.959,-93.82927 0,-51.81232 40.9804,-94.39911 90.0991,-94.39911 z m 96.6741,181.85753 h 39.7167 V 76.01756 c 36.3397,31.78556 63.1159,71.73565 79.1891,119.84397 l 34.1187,0.20364 V 20.0326 l -38.0313,5e-5 -0.041,86.24308 C 777.3398,86.41026 762.7602,70.07183 748.4257,55.9871 734.0687,41.88038 722.4075,29.93553 707.8726,20.03265 H 674.293 Z m -346.9609,0 h 38.5781 V 76.01756 c 36.3387,31.78556 62.5506,71.73565 78.6233,119.84397 h 34.4852 V 20.03259 h -38.5824 v 84.83823 C 418.0199,72.64717 390.8626,43.70343 359.7782,20.03259 H 327.3325 Z M 217.1537,20.03259 h 37.4095 c 36.3251,40.09625 58.5606,98.41463 66.0523,175.82894 h -40.6281 c -1.0557,-13.44542 -2.7023,-25.80257 -4.9355,-38.20996 h -80.2005 c -2.2269,12.38798 -3.8588,24.74357 -4.8787,38.20996 H 150.5169 C 157.6342,117.98085 181.4768,57.72155 217.1537,20.03259 Z M 267.566,124.71694 C 258.8452,96.92803 248.4622,74.0672 234.4094,52.9825 220.4471,74.14895 209.5268,98.0116 201.8088,124.71694 Z M 40.6721,49.48477 c 0,0 7.8426,-0.29292 17.4913,-0.29292 9.6472,0 30.7185,1.75018 46.205,16.91369 15.4881,15.1641 15.7817,32.36506 15.7817,44.32338 0,11.95464 -4.1184,37.90385 -29.5472,49.56556 -25.4242,11.66747 -50.2228,7.2931 -50.2228,7.2931 z"
   style="fill:url(#radialGradient960);fill-opacity:1;fill-rule:evenodd;stroke:none;stroke-width:5.24611"
   id="path4280"
   inkscape:connector-curvature="0"
   sodipodi:nodetypes="ccccscscscccccccccccccccccccccssssscssscccccccccscccccccccccccccccccccccccccccscccc" /></svg>
