<svg version="1.1" id="Layer_1" xmlns:x="ns_extend;" xmlns:i="ns_ai;" xmlns:graph="ns_graphs;" xmlns="http://www.w3.org/2000/svg" xmlns:xlink="http://www.w3.org/1999/xlink" x="0px" y="0px" viewBox="0 0 376.9 100" style="enable-background:new 0 0 376.9 100;" xml:space="preserve">
 <style type="text/css">
  .st0{fill:#2A276E;}
	.st1{fill:#703E97;}
	.st2{fill:#F1CB14;}
 </style>
 <metadata>
  <sfw xmlns="ns_sfw;">
   <slices>
   </slices>
   <sliceSourceBounds bottomLeftOrigin="true" height="100" width="376.9" x="-226.9" y="0">
   </sliceSourceBounds>
  </sfw>
 </metadata>
 <g>
  <path class="st0" d="M364.1,28.4h-1.6c-0.1,0-0.2-0.1-0.2-0.2l0,0v-0.9c0-0.1,0.1-0.2,0.2-0.2c0,0,0,0,0,0h4.7
		c0.1,0,0.2,0.1,0.2,0.2c0,0,0,0,0,0v0.9c0,0.1-0.1,0.2-0.2,0.2l0,0h-1.6v6c0,0.1-0.1,0.2-0.2,0.2h-1c-0.1,0-0.2-0.1-0.2-0.2
		L364.1,28.4L364.1,28.4z">
  </path>
  <path class="st0" d="M369.8,27.2c0-0.1,0.1-0.2,0.2-0.2h0.2c0.1,0,0.1,0,0.2,0.1l2.4,5.1h0l2.4-5.1c0-0.1,0.1-0.1,0.2-0.1h0.2
		c0.1,0,0.2,0.1,0.2,0.2l1.3,7.2c0,0.1,0,0.2-0.1,0.2c0,0-0.1,0-0.1,0h-1c-0.1,0-0.2-0.1-0.2-0.2l-0.6-4.1h0l-1.9,4.2
		c0,0.1-0.1,0.1-0.2,0.1h-0.2c-0.1,0-0.2,0-0.2-0.1l-1.9-4.2h0l-0.6,4.1c0,0.1-0.1,0.2-0.2,0.2h-1c-0.1,0-0.2-0.1-0.2-0.2
		c0,0,0-0.1,0-0.1L369.8,27.2z">
  </path>
  <path class="st0" d="M345.1,45.6c-5.2-2.1-7.6-4.2-7.6-7.2c0-2.1,2-4.5,5.7-4.5c3.5,0,8.5,3.2,9,3.5c0.8,0.5,1.7,0,2.3-0.8l2.5-3.7
		c0.4-0.7,0.3-1.6-0.4-2.1c-1.3-1-6.3-4.3-12.9-4.3c-10.3,0-14.5,6.6-14.5,12.4c0,7.6,6.1,11.5,12.2,14c5.4,2.2,8.2,4.5,8.2,7.8
		c0,2.8-2.5,5-5.9,5c-4.2,0-9.4-3.8-9.7-4c-0.7-0.5-1.6-0.4-2.1,0.3c0,0.1-0.1,0.1-0.1,0.2l-2.3,4c-0.6,1-0.3,1.4,0.3,1.9
		c1.3,1.2,6.1,5,14.2,5c9.1,0,14.9-6.1,14.9-12.8C358.6,51.8,351.4,48.1,345.1,45.6z">
  </path>
  <path class="st0" d="M317.3,27.1h-7.2v44c0,0.7,0.6,1.2,1.2,1.2h7.2v-44C318.5,27.6,318,27.1,317.3,27.1z">
  </path>
  <path class="st0" d="M290.2,54c5.6-2.3,9.6-7.1,9.6-13.1c-0.1-7.7-6.4-14-14.1-13.9H266v44c0,0.7,0.5,1.2,1.2,1.2c0,0,0,0,0,0h7.2
		V54.6h7.2l8.6,17.1c0.2,0.4,0.6,0.6,1,0.6h8.9L290.2,54z M285,47.7h-10.5V34.9H285c3.4,0,6.4,2.8,6.4,6.3
		C291.4,44.7,288.4,47.7,285,47.7z">
  </path>
  <path class="st0" d="M208.1,27.2c-0.2-0.5-0.6-0.7-1.1-0.7h-0.7c-0.5,0-0.9,0.3-1.1,0.7l-20.9,45.2h7.5c0.8,0,1.6-0.5,1.9-1.3
		l3.2-7h19.3l3.2,7c0.4,0.9,0.9,1.3,1.9,1.3h7.5L208.1,27.2z M200.1,56.9l6.3-14.2h0.2l6.5,14.2H200.1z">
  </path>
  <path class="st0" d="M256.4,27.1H227v6.5c0,0.7,0.5,1.2,1.2,1.2l0,0h9.9v36.3c0,0.7,0.6,1.2,1.2,1.2h7.2V34.9h11.1v-6.5
		C257.7,27.6,257.1,27.1,256.4,27.1C256.5,27.1,256.4,27.1,256.4,27.1z">
  </path>
  <path class="st0" d="M176.7,27.1h-7.2v44c0,0.7,0.6,1.2,1.2,1.2h7.2v-44C178,27.6,177.4,27.1,176.7,27.1z">
  </path>
  <path class="st0" d="M153,26.9c-0.5,0-0.9,0.3-1.1,0.7l-12.4,27.8H139l-12.4-27.8c-0.2-0.4-0.6-0.7-1.1-0.7h-8.5l20.7,45.2
		c0.2,0.4,0.6,0.7,1.1,0.7h0.6c0.5,0,0.9-0.3,1.1-0.7l20.8-45.2H153z">
  </path>
  <path class="st1" d="M69.8,70.7C35.4,97.4,1.4,51.5,6.5,25.8c0-0.1,0-0.1-0.1-0.1c0,0-0.1,0-0.1,0.1C-6.8,49.3,1.2,79,24.2,92.9
		c0.7,0.4,1.4,0.7,2.1,0.9c6.5,1.7,28.5,4.4,43.7-22.9c0.1-0.1,0-0.1,0-0.2C70,70.6,69.9,70.6,69.8,70.7z">
  </path>
  <path class="st2" d="M58,22.5c40.3,16.4,17.6,68.9-7.2,77.3c-0.1,0-0.1,0.1-0.1,0.2c0,0.1,0.1,0.1,0.1,0.1
		c26.9-0.5,48.7-22.2,49.1-49.1c0-0.8-0.1-1.5-0.3-2.2C97.8,42.2,89.2,21.8,58,22.3c-0.1,0-0.1,0.1-0.1,0.1
		C57.9,22.4,57.9,22.5,58,22.5z">
  </path>
  <path class="st0" d="M22.2,56.8C16.2,13.7,73,7.1,92.7,24.4c0,0.1,0.1,0.1,0.2,0c0.1,0,0.1-0.1,0-0.2C79,1.2,49.3-6.8,25.8,6.3
		c-0.7,0.4-1.3,0.8-1.8,1.4c-4.7,4.8-18,22.4-2,49.3c0,0.1,0.1,0.1,0.2,0C22.2,56.9,22.2,56.9,22.2,56.8z">
  </path>
  <path class="st0" d="M71,40.2c0-0.1-0.1-0.2-0.1-0.3c-0.3-0.6-0.6-1.2-0.9-1.7l-0.2-0.3C63,27,48.8,23.6,37.9,30.3
		c-3.1,1.9-5.7,4.5-7.6,7.6l-0.2,0.3c-0.3,0.6-0.6,1.1-0.9,1.7c0,0.1-0.1,0.2-0.1,0.3c-2.8,6.1-2.9,13.1-0.1,19.3
		c0,0.1,0.1,0.2,0.1,0.3c0.3,0.6,0.6,1.2,0.9,1.7c0.1,0.1,0.1,0.2,0.2,0.3c6.5,11,20.7,14.6,31.7,8.1c3.3-2,6.1-4.8,8.1-8.1
		c0.1-0.1,0.1-0.2,0.2-0.3c0.3-0.6,0.6-1.1,0.9-1.7c0-0.1,0.1-0.2,0.1-0.3C73.8,53.3,73.8,46.3,71,40.2L71,40.2z M68.7,40.2
		c1.4,2.6,2.2,5.5,2.4,8.5H62c-0.1-2.9-0.4-5.7-1.1-8.5L60.8,40h7.7L68.7,40.2z M60,51c-0.1,2.9-0.4,5.7-1,8.5H51V51l0,0v-0.3h9
		C60,50.8,60,50.9,60,51L60,51z M41.1,59.5c-0.6-2.8-1-5.6-1-8.5c0-0.1,0-0.2,0-0.3h9V51l0,0v8.5L41.1,59.5z M41.1,40.2
		c0-0.1,0-0.2,0.1-0.3H49v8.7h-9C40.1,45.8,40.5,43,41.1,40.2L41.1,40.2z M58.8,40c0,0.1,0,0.2,0.1,0.3c0.7,2.8,1,5.6,1.1,8.5h-9V40
		H58.8z M67.3,37.9h-7.1c-1.1-3.3-2.5-6.1-4.3-8c0,0,0-0.1,0-0.1c0,0,0.1,0,0.1,0C60.6,31.1,64.6,34,67.3,37.9L67.3,37.9z M51.1,29
		c2.9,0.7,5.5,4.1,7.1,8.9H51v-8.8C51,29,51,29,51.1,29C51.1,29,51.1,29,51.1,29L51.1,29z M49,29.1v8.8h-7.2
		c1.6-4.9,4.1-8.2,7.1-8.9C48.9,29,49,29,49,29.1C49,29.1,49,29.1,49,29.1L49,29.1z M44,29.9c-1.8,1.9-3.2,4.7-4.3,8h-7.1
		c2.7-3.9,6.7-6.8,11.3-8.2C44,29.7,44.1,29.8,44,29.9C44.1,29.8,44.1,29.9,44,29.9L44,29.9z M31.3,40.2l0.2-0.3h7.7l-0.1,0.3
		c-0.7,2.8-1,5.6-1.1,8.5h-9.1C29.1,45.7,29.9,42.8,31.3,40.2z M28.9,51c0-0.1,0-0.2,0-0.3H38V51c0.1,2.9,0.4,5.7,1,8.5h-7.9
		C29.8,56.8,29,53.9,28.9,51L28.9,51z M32.3,61.5h7.3l0.1,0.3c1.1,3.5,2.6,6.3,4.4,8.3c0,0,0,0.1,0,0.1c0,0-0.1,0-0.1,0
		C39.2,68.8,35,65.7,32.3,61.5C32.3,61.5,32.3,61.5,32.3,61.5z M49,61.8v9.1c0,0.1,0,0.1-0.1,0.1c0,0,0,0,0,0
		c-3-0.7-5.7-4.3-7.2-9.5H49V61.8z M51.1,71C51.1,71,51,71,51,71c0,0,0,0,0,0v-9.4h7.4C56.8,66.7,54.2,70.3,51.1,71L51.1,71z
		 M67.7,61.5c-2.7,4.2-6.9,7.3-11.7,8.7c0,0-0.1,0-0.1-0.1c0,0,0-0.1,0-0.1c1.8-2,3.3-4.9,4.4-8.3l0.1-0.3L67.7,61.5
		C67.7,61.5,67.7,61.5,67.7,61.5z M71.1,51c-0.1,3-0.9,5.8-2.2,8.5H61c0.6-2.8,1-5.6,1-8.5v-0.3h9.1C71.1,50.8,71.1,50.9,71.1,51
		L71.1,51z">
  </path>
 </g>
</svg>